<svg xmlns="http://www.w3.org/2000/svg" viewBox="0 0 500 500"><g id="freepik--Mountains--inject-8"><g id="freepik--mountains--inject-8"><path d="M457.16,202.78c-37.11-30.29-97.31-78.84-101.21-78.63-4.55.25-13.12,7.44-13.12,7.44S315,102.11,309.52,101.41c-3.44-.44-36,32.67-59.5,57.07-13.64,14.17-24.21,25.4-24.21,25.4V355.13H457.16Z" style="fill:#e0e0e0"></path><path d="M315.66,113c3.67,4.78-3.59,1.07-7.07,2.15s12.87,12.92,10,15.74c-1.61,1.57-12.08-2.64-10.11,1.18.64,1.23,11.4,10.06,6.38,10.73-3,.4-7.1-1.23-5.38,3.23a23.64,23.64,0,0,0,5.05,7.87l28.33-22.33s-26.62-28.16-32.9-30.08l-.41-.1C308.38,101.8,312,108.23,315.66,113Z" style="opacity:0.1"></path><path d="M307.34,119.38c3.44.29,9,3.76,11.36,1.57s7.58-6.09,9.87-3.84c-7.75-7.57-16.29-15.35-19.05-15.7-1.82-.23-11.77,8.9-24.21,21.17,5.22-3.2,8.8.71,11.91,1.57S303.9,119.1,307.34,119.38Z" style="fill:#f5f5f5"></path><path d="M457.16,202.78C420,172.48,359.83,123.94,356,124.15a5.52,5.52,0,0,0-.55.07c-1.84.86,2.87,6.7,3.86,8.85,1.08,2.32-9,0-9.45,1.56s13.7,12.22,13.87,14.12S351,147,350.61,148.68s14.63,13.89,14.85,17.45c.11,1.94-5.42.48-9.69-1.1-3-1.1-7.9,0-3.57,5.3,1.85,2.28,69.58,69.36,105,104.37Z" style="opacity:0.1"></path><path d="M342.83,131.59l-10.55,8.31c3.19-2.51,6.08,1.57,10.55,1.4s7-4.17,11.27-2.91c3.52,1,4.9,2.61,7.38,3,4.55.76,3.29-1.84,5.86-2.4,1.74-.38,10.62,1,14.23,2.59C368.63,131.64,358,124,356,124.15a7,7,0,0,0-1.62.32,18.27,18.27,0,0,0-3.08,1.32c-.28.15-.57.31-.85.48a54.06,54.06,0,0,0-5.45,3.65c-1.28,1-2.12,1.67-2.12,1.67Z" style="fill:#f5f5f5"></path><path d="M250,174.6c-19.43-17.33-38.29-33.56-40.67-33.43-3.86.21-26.2,17.53-26.2,17.53s-32.71-36.64-37.33-37.24c-3.26-.41-67.53,67.26-106.82,98.16V355.13H447.39S272.2,194.38,250,174.6Z" style="fill:#e0e0e0"></path><path d="M151,131.33c3.13,4.07-3,.91-6,1.83s10.34,9,7.87,11.36c-1.37,1.33-8-1.87-6.34,1.38s19.2,25.21,19.2,25.21l17.4-12.41s-31.65-35.52-37-37.16l-.34-.08C144.85,121.79,147.91,127.26,151,131.33Z" style="opacity:0.1"></path><path d="M211.08,150.08c.91,2-6.59-1.32-6.94,0s10.16,12.52,10.29,14.14-9.29-3.65-9.62-2.2,12.44,11.8,12.62,14.83c.1,1.65-4.59.41-8.23-.93-2.53-.93-6.71,0-3,4.5,2.16,2.64,185.48,174.71,185.48,174.71h55.74S257.5,180.85,245.73,170.34c-15.3-13.65-33.51-29.32-36.37-29.17a3.12,3.12,0,0,0-.52.1C207.4,142.1,210.25,148.27,211.08,150.08Z" style="opacity:0.1"></path><path d="M209.36,141.17c-2.43.13-12.11,7-19,12.08,2,.42,5.31,2.59,7.84,2.5,3.8-.15,6.71-3.8,9.42-2.22s5.86,5.52,9.34,6.12c5.6,1,6.46-1.47,9.46-.75a67,67,0,0,0,7.63,1.14C222.32,149.86,211.51,141.05,209.36,141.17Z" style="fill:#f5f5f5"></path><path d="M133.78,140.86c4.19-1,7.26-4.37,10.18-4.12s7.68,3.19,9.66,1.33,4.53-3.3,6.93-2.56l1.54.48c-7-7.21-13.58-13.56-15.92-14.43l-.35-.1-.12,0c-1.36.27-8.36,6.83-18.54,16.68C129.63,139.34,131.14,141.47,133.78,140.86Z" style="fill:#f5f5f5"></path></g></g><g id="freepik--Trees--inject-8"><g id="freepik--Pines--inject-8"><g id="freepik--Pine--inject-8"><path d="M61.33,255c-6.17,4.56-34.45,3.93-40.82,0-.57-2.46-.28-7.95.6-15.17l7.59,4.08-6.86-9.61c1-7,2.39-15.08,4-23.35l4.7,2.62-4-6c.32-1.55.63-3.1,1-4.65l5.36,2.63-4.6-6.15c1.37-6.25,2.82-12.38,4.28-18l4.27,1.24s-1.6-2.41-3.3-4.91c1.5-5.53,3-10.45,4.4-14.34a3.18,3.18,0,0,1,6,0c1.89,5.23,4,12.35,6,20.33L46.09,190l4.39-3.89c.92,3.69,1.82,7.53,2.68,11.42L47.1,208.36l7.3-5.11c1.21,5.73,2.33,11.47,3.32,17l-5.93,5.88L58.37,224c.12.67.23,1.33.34,2l-6.07,8.19,6.79-3.72C61.26,242.16,62.11,251.52,61.33,255Z" style="fill:#D38F1D"></path><path d="M61.33,255c-6.17,4.56-34.45,3.93-40.82,0-.57-2.46-.28-7.95.6-15.17l7.59,4.08-6.86-9.61c1-7,2.39-15.08,4-23.35l4.7,2.62-4-6c.32-1.55.63-3.1,1-4.65l5.36,2.63-4.6-6.15c1.37-6.25,2.82-12.38,4.28-18l4.27,1.24s-1.6-2.41-3.3-4.91c1.5-5.53,3-10.45,4.4-14.34a3.18,3.18,0,0,1,6,0c1.89,5.23,4,12.35,6,20.33L46.09,190l4.39-3.89c.92,3.69,1.82,7.53,2.68,11.42L47.1,208.36l7.3-5.11c1.21,5.73,2.33,11.47,3.32,17l-5.93,5.88L58.37,224c.12.67.23,1.33.34,2l-6.07,8.19,6.79-3.72C61.26,242.16,62.11,251.52,61.33,255Z" style="fill:#fff;opacity:0.2"></path><path d="M42.42,228.68,51,212.47l-8.76,10.74L40.92,172.9l-1.05,30.61-6.14-8.86,6,14.39-1.07,31L26.92,229.27l11.53,15.29-1,42.58c0,1.81,6.13,1.81,6.13,0l-1.19-58.46Z" style="fill:#37474f"></path></g><g id="freepik--pine--inject-8"><path d="M95.7,217.17c-6.54,4.82-36.5,4.15-43.26,0-.47-2-.38-6,.11-11.31l7.79,2.81-7.24-7.78c.83-6.79,2.13-15,3.74-23.69L61.23,179l-3.82-4.86c.16-.85.33-1.71.5-2.56l10.45,5.32-9-12.32c1.4-6.77,2.92-13.54,4.48-19.89l6.79,5.68-5.88-9.3c.43-1.7.87-3.36,1.29-5l6,3.27-4.93-7.22c1.31-4.62,2.6-8.74,3.82-12.12a3.37,3.37,0,0,1,6.33,0c1.83,5.07,3.8,11.78,5.76,19.34-1.7,4-3.06,7.07-3.06,7.07l4.34-2c.47,1.92.94,3.89,1.41,5.89-2,6.29-4.62,14.19-4.62,14.35l5.61-10C92.58,180.89,97.28,210.27,95.7,217.17Z" style="fill:#D38F1D"></path><path d="M75.66,189.33l9.13-17.18L75.5,183.53l-1.43-53.31L73,162.66l-6.5-9.39,6.3,15.25-1.13,32.85L59.24,190l12.22,16.19-1,53.13c0,1.92,6.49,1.92,6.49,0l-1.26-69.95Z" style="fill:#37474f"></path></g><g id="freepik--pine--inject-8"><path d="M448.38,209.71c-6.8,4.86-37.95,4.19-45,0a32.47,32.47,0,0,1-.14-8.32l10.63,4.72-10.16-9.75c.6-5.47,1.59-12.11,2.86-19.31l3.88,2-3.54-3.95c.73-4.07,1.55-8.28,2.42-12.55l6.32,4.92L410,159.31c.18-.89.37-1.79.56-2.67l8.65,6.91-7.33-12.92c1.35-6,2.78-11.85,4.21-17.34l5.64,4.15c-.13-.23-2.38-3.95-4.65-7.81,1.86-6.85,3.73-12.92,5.48-17.6a3.55,3.55,0,0,1,6.59,0c1.66,4.45,3.43,10.16,5.21,16.6h0L431,136l4.11-4.87c1.11,4.12,2.21,8.5,3.28,13L431,159.86l8.73-10c.14.61.29,1.24.42,1.86l-3.56,8.14,4.14-5.54c1.5,6.87,2.88,13.78,4.07,20.31l-10.25,12,11.09-7.16c.26,1.5.5,3,.73,4.43l-5.2,5.57,5.82-1.62C448.48,198.29,449.14,206.48,448.38,209.71Z" style="fill:#D38F1D"></path><path d="M448.38,209.71c-6.8,4.86-37.95,4.19-45,0a32.47,32.47,0,0,1-.14-8.32l10.63,4.72-10.16-9.75c.6-5.47,1.59-12.11,2.86-19.31l3.88,2-3.54-3.95c.73-4.07,1.55-8.28,2.42-12.55l6.32,4.92L410,159.31c.18-.89.37-1.79.56-2.67l8.65,6.91-7.33-12.92c1.35-6,2.78-11.85,4.21-17.34l5.64,4.15c-.13-.23-2.38-3.95-4.65-7.81,1.86-6.85,3.73-12.92,5.48-17.6a3.55,3.55,0,0,1,6.59,0c1.66,4.45,3.43,10.16,5.21,16.6h0L431,136l4.11-4.87c1.11,4.12,2.21,8.5,3.28,13L431,159.86l8.73-10c.14.61.29,1.24.42,1.86l-3.56,8.14,4.14-5.54c1.5,6.87,2.88,13.78,4.07,20.31l-10.25,12,11.09-7.16c.26,1.5.5,3,.73,4.43l-5.2,5.57,5.82-1.62C448.48,198.29,449.14,206.48,448.38,209.71Z" style="fill:#fff;opacity:0.35000000000000003"></path><path d="M427.54,184.09,437,166.24l-9.64,11.82-1.49-55.39-1.16,33.7L418,146.62l6.54,15.84-1.17,34.14-12.87-11.86,12.7,16.83-1.08,47.64c0,2,6.75,2,6.75,0l-1.31-65.12Z" style="fill:#37474f"></path></g><g id="freepik--pine--inject-8"><path d="M478.88,255.93c-6.48,4-35.28,4.62-41.56,0-.57-2.52-.28-8.16.62-15.56l8.15,3.48-7.52-8.35c.73-5.07,1.65-10.73,2.73-16.64l5,2.18-4.66-3.95c.26-1.37.52-2.75.79-4.14l8.33,4.8-7.49-9.07c.93-4.61,1.92-9.23,2.95-13.75l4.3,2.31L447,191.19c1.07-4.41,3.11-12.3,4.19-16.17l4.38,3.48-3.7-5.87c1.08-3.77,2.16-7.15,3.19-10a3.23,3.23,0,0,1,6.08,0c1.57,4.33,3.24,9.92,4.91,16.21h0l-3.4,7.72,4.52-3.42c1.18,4.64,2.34,9.57,3.46,14.59h0l-5.69,14.37,6.83-9.13c.4,1.91.8,3.84,1.19,5.76l-4.07,8,4.66-5c1.11,5.69,2.12,11.27,3,16.48h0l-9.3,14.6,10.06-9.62c.24,1.57.46,3.09.65,4.56l-7,8.61,7.57-4C479.21,248.77,479.41,253.64,478.88,255.93Z" style="fill:#D38F1D"></path><path d="M478.88,255.93c-6.48,4-35.28,4.62-41.56,0-.57-2.52-.28-8.16.62-15.56l8.15,3.48-7.52-8.35c.73-5.07,1.65-10.73,2.73-16.64l5,2.18-4.66-3.95c.26-1.37.52-2.75.79-4.14l8.33,4.8-7.49-9.07c.93-4.61,1.92-9.23,2.95-13.75l4.3,2.31L447,191.19c1.07-4.41,3.11-12.3,4.19-16.17l4.38,3.48-3.7-5.87c1.08-3.77,2.16-7.15,3.19-10a3.23,3.23,0,0,1,6.08,0c1.57,4.33,3.24,9.92,4.91,16.21h0l-3.4,7.72,4.52-3.42c1.18,4.64,2.34,9.57,3.46,14.59h0l-5.69,14.37,6.83-9.13c.4,1.91.8,3.84,1.19,5.76l-4.07,8,4.66-5c1.11,5.69,2.12,11.27,3,16.48h0l-9.3,14.6,10.06-9.62c.24,1.57.46,3.09.65,4.56l-7,8.61,7.57-4C479.21,248.77,479.41,253.64,478.88,255.93Z" style="fill:#fff;opacity:0.2"></path><path d="M468.9,220.31l-8.73,12.35L459.25,206,464,190.07,459.08,201l-1-28.55L457,213.6l-4.9-5.85L456.85,219l-.63,23.39-10.13-10.08,10,16.93-.68,30.35c0,1.84,6.24,1.84,6.24,0l-1.16-39Z" style="fill:#37474f"></path></g><g id="freepik--pine--inject-8"><path d="M404.83,213.18c-5.45,3.36-29.64,3.89-34.91,0-.41-1.77-.3-5.37.19-10.16l5.41,1-5-4.37c.23-1.85.5-3.84.81-5.91l10,4-9.56-7.08c1-6.38,2.34-13.48,3.83-20.57l7.76,6.2-7.05-9.59c.62-2.83,1.26-5.65,1.9-8.39l6.31,3.94L379,155.22c.61-2.46,1.21-4.84,1.82-7.11l3.74,4.1L382,143.55c.95-3.29,1.88-6.25,2.77-8.72a2.71,2.71,0,0,1,5.11,0c1.49,4.11,3.1,9.57,4.68,15.71h0l-2.83,6.08,3.72-2.57c1.18,4.78,2.34,9.86,3.43,15h0l-5.7,11.76,6.62-7.25c.5,2.46,1,4.91,1.41,7.31l-3.68,5.53,4.25-2.48c.91,5.17,1.69,10.05,2.25,14.34h0l-5.92,9.38,6.58-3.55C405.14,208.34,405.2,211.55,404.83,213.18Z" style="fill:#D38F1D"></path><path d="M386.09,190.72l-7.36-13.86,7.49,9.18,1.15-43,.9,26.17,5.24-7.57-5.08,12.3.91,26.51,10-9.21-9.85,13.07.83,41.66c0,1.54-5.24,1.54-5.24,0l1-55.24Z" style="fill:#37474f"></path></g><g id="freepik--pine--inject-8"><path d="M128.31,225.39c-5.45,3.36-29.64,3.89-34.92,0-.4-1.77-.29-5.38.2-10.16l5.41,1-5-4.37c.23-1.85.5-3.84.81-5.91l10,4-9.56-7.07c1-6.38,2.34-13.49,3.83-20.57l7.76,6.2-7-9.59c.62-2.83,1.25-5.65,1.9-8.39l6.31,3.94-5.56-7.08c.6-2.46,1.21-4.84,1.82-7.11l3.74,4.1-2.48-8.66c1-3.3,1.88-6.26,2.77-8.72a2.71,2.71,0,0,1,5.11,0c1.49,4.11,3.09,9.57,4.68,15.71h0l-2.83,6.08,3.72-2.57c1.18,4.78,2.34,9.86,3.43,15h0L116.7,193l6.62-7.25c.5,2.46,1,4.91,1.41,7.31l-3.68,5.53,4.25-2.48c.91,5.16,1.69,10.05,2.25,14.34h0l-5.92,9.38,6.58-3.54C128.62,220.55,128.67,223.76,128.31,225.39Z" style="fill:#D38F1D"></path><path d="M128.31,225.39c-5.45,3.36-29.64,3.89-34.92,0-.4-1.77-.29-5.38.2-10.16l5.41,1-5-4.37c.23-1.85.5-3.84.81-5.91l10,4-9.56-7.07c1-6.38,2.34-13.49,3.83-20.57l7.76,6.2-7-9.59c.62-2.83,1.25-5.65,1.9-8.39l6.31,3.94-5.56-7.08c.6-2.46,1.21-4.84,1.82-7.11l3.74,4.1-2.48-8.66c1-3.3,1.88-6.26,2.77-8.72a2.71,2.71,0,0,1,5.11,0c1.49,4.11,3.09,9.57,4.68,15.71h0l-2.83,6.08,3.72-2.57c1.18,4.78,2.34,9.86,3.43,15h0L116.7,193l6.62-7.25c.5,2.46,1,4.91,1.41,7.31l-3.68,5.53,4.25-2.48c.91,5.16,1.69,10.05,2.25,14.34h0l-5.92,9.38,6.58-3.54C128.62,220.55,128.67,223.76,128.31,225.39Z" style="fill:#fff;opacity:0.35000000000000003"></path><path d="M109.57,202.93l-7.37-13.86,7.49,9.18,1.16-43,.9,26.18,5.24-7.58-5.08,12.31.91,26.51,10-9.21L113,216.5l.84,41.67c0,1.54-5.24,1.54-5.24,0l1-55.24Z" style="fill:#37474f"></path></g></g></g><g id="freepik--Bushes--inject-8"><g id="freepik--bushes--inject-8"><g id="freepik--bushes--inject-8"><path d="M483.7,334.36c6.55-4.66,6.5-16.77-1.82-19.36,5.74-5.76,4-18.16-4.33-18.92,2-5.09,1-12.05-5.49-13.34,2.07-6.24-3.7-10.56-9.49-8.32-.25-6.57-9.56-6.95-11.66-2.32.11-2.55-3.7-7.26-6.14-7.27,4.22-3.31,3.05-9.93-.57-10.81,4.93-3.74,2.29-12.26-3.6-12.18,3.95-6.22-4.47-12.72-9.7-10.8,3-7-10.87-12.55-13.87-5.15-5.29-8.72-23.45-3.58-21,7.76-4.33-.55-6.17,2.26-4.69,6.5a4.72,4.72,0,0,0-7.05,3,3.35,3.35,0,0,0-2.8-4.37c5.76-2.34,1.73-10.89-3.59-10.56,5-6.45-5.16-13.94-10.58-8.83-2.51-5.92-11.51-4.67-10.92,2.27-2-3.62-5.92-3.36-9.14-1.43-4.44,2.67-3.84,7.42-1.4,11.27-1.84-2.2-7.47-3.41-8.32.23a4.41,4.41,0,0,0-6.35-.72c-1.66-6-12.35-6.75-14.37.61a5,5,0,0,0-6.69,1.91c-1.58,2.46-.89,5.42-.5,8.12a3.29,3.29,0,0,0-5.18,4,6.94,6.94,0,0,0-10,2.41,12.46,12.46,0,0,0-15.89-6.23c-1.4.63-2.83,1.83-2.68,3.36-1.34-1.63-3.07-3.15-5.17-3.39s-4.47,1.4-4.3,3.5a7.48,7.48,0,0,0-12.88,4.05c-.88-3.78-6-5.75-9.21-3.52-.45-4.75-5.57-8.35-10.28-7.61s-8.4,5.27-8.67,10A8.48,8.48,0,0,0,210.57,246a10,10,0,0,0-13.31-4.86c.41-2.54.14-6.27-1.81-8.19-.66-.65-7.12-2.81-6.69-1.23-2-7.36-12.71-6.58-14.38-.61a4.39,4.39,0,0,0-6.34.72c-.86-3.64-6.48-2.43-8.32-.23,2.44-3.85,3-8.6-1.41-11.27-3.22-1.93-7.14-2.19-9.13,1.43.59-6.94-8.41-8.19-10.93-2.27-5.41-5.11-15.6,2.38-10.58,8.83-1.68-.1-2.87.79-4.26,1.52a8.17,8.17,0,0,0-3.13,3,19.09,19.09,0,0,0-2,4.79,7,7,0,0,0-8.54-4.88c-.3-1.07,0-2.13-.29-3.22a8.42,8.42,0,0,0-.93-2.23,10.81,10.81,0,0,0-3.5-3.49,14.5,14.5,0,0,0-9-2.16,11.06,11.06,0,0,0-4.32,1.3,9,9,0,0,0-1.79,1.32c-.22.21-1.5,1.42-1.38,1.71-3-7.4-16.83-1.84-13.87,5.15-5.23-1.92-13.64,4.58-9.7,10.8-5.88-.08-8.52,8.44-3.59,12.18-3.63.88-4.79,7.5-.57,10.81-2.44,0-6.26,4.72-6.14,7.27-2.1-4.63-11.41-4.25-11.66,2.32-5.79-2.24-11.56,2.08-9.49,8.32C27,284,26,291,28,296.08c-8.33.76-10.07,13.16-4.32,18.92-8.32,2.59-8.37,14.7-1.82,19.36-4.34,2.08-4.77,12.14,2.3,14.92a6.26,6.26,0,0,0-.52.51c-4.16,4.44-.68,11.76,5.4,11.76H476.51c6.09,0,9.57-7.32,5.41-11.76a6.38,6.38,0,0,0-.53-.51C488.46,346.5,488,336.44,483.7,334.36Z" style="fill:#455a64"></path><path d="M83.07,245.69a6.67,6.67,0,0,1,9.41-.56,6.42,6.42,0,0,1,1.23,1.49,6.66,6.66,0,0,1,10.8,3.82,8,8,0,0,0-5.06-2.77A7.91,7.91,0,0,0,91.31,252a5.51,5.51,0,0,1,0-1.14,6.64,6.64,0,0,1,.91-2.57,7.83,7.83,0,0,0-9.87-1.69A6.41,6.41,0,0,1,83.07,245.69Z" style="fill:#37474f"></path><path d="M152.42,234.2a5.15,5.15,0,0,0-7.26-.43,5.38,5.38,0,0,0-.95,1.14,5.14,5.14,0,0,0-8.32,3,6.11,6.11,0,0,1,10.17,1.22,4.35,4.35,0,0,0,0-.88,5.19,5.19,0,0,0-.69-2,4,4,0,0,1,.53-.56,6.09,6.09,0,0,1,7.07-.75A4.3,4.3,0,0,0,152.42,234.2Z" style="fill:#37474f"></path><path d="M73.76,271.56c-.76-1-4.14-.62-5.22-.42A7.32,7.32,0,0,0,63,280.69a5.9,5.9,0,0,0-6.54,8.51c-4.3-1-10.89-.22-14.25,3-1.84,1.79-2.55,4.85-1.15,7-.26-.4-3.64-.44-6.43,1.28a6.45,6.45,0,0,0-2.87,5.09,10.58,10.58,0,0,0,2,6.4c-.22-.43-2.83,1.38-3.06,1.6a6.58,6.58,0,0,0-1.83,2.86,3.56,3.56,0,0,0,3.11,4.45,9.62,9.62,0,0,0-4.29,3.38,5.37,5.37,0,0,0-.48,5.27c1.12,2.17,3.76,3,6.12,3.55a6.74,6.74,0,0,0-1.68,6,4.65,4.65,0,0,0,4.77,3.52,6.42,6.42,0,0,0,3,11.84c-1.19-.08-2.1,2.41-2.4,3.2a43.66,43.66,0,0,1-2,3.89H29c-6.08,0-9.56-7.32-5.4-11.76a6.26,6.26,0,0,1,.52-.51c-7.07-2.78-6.64-12.84-2.3-14.92-6.55-4.66-6.5-16.77,1.82-19.36-5.75-5.76-4-18.16,4.32-18.92C26,291,27,284,33.5,282.74c-2.07-6.24,3.7-10.56,9.49-8.32.25-6.57,9.56-6.95,11.66-2.32-.12-2.55,3.7-7.26,6.14-7.27-4.22-3.31-3.06-9.93.57-10.81-4.93-3.74-2.29-12.26,3.59-12.18-3.13-4.94,1.53-10.05,6.2-11-1.69,1.89-3.24,4.41-2,7,1.1,2.33,4.1,2.73,6.08,3.71-4.72,1.59-6.88,6.33-3.37,10.48-4.81.6-5.43,7-3.5,9.59,1.18-1,3.63-1.26,5.42-.92,2.42.46,3.72,1.68,5.88,4.1C75.38,261.52,71,267.84,73.76,271.56Z" style="fill:#37474f"></path><path d="M422.49,245.69a6.67,6.67,0,0,0-9.41-.56,6.18,6.18,0,0,0-1.23,1.49,6.66,6.66,0,0,0-10.8,3.82A7.94,7.94,0,0,1,414.24,252a5.51,5.51,0,0,0,0-1.14,6.62,6.62,0,0,0-.9-2.57,7.77,7.77,0,0,1,.69-.72,7.92,7.92,0,0,1,9.17-1A5.66,5.66,0,0,0,422.49,245.69Z" style="fill:#37474f"></path><path d="M353.13,234.2a5.15,5.15,0,0,1,7.26-.43,4.84,4.84,0,0,1,.95,1.14,5.15,5.15,0,0,1,8.33,3,6.11,6.11,0,0,0-10.17,1.22,3.72,3.72,0,0,1,0-.88,5,5,0,0,1,.69-2,4.68,4.68,0,0,0-.53-.56,6.1,6.1,0,0,0-7.08-.75A4.3,4.3,0,0,1,353.13,234.2Z" style="fill:#37474f"></path><path d="M483.7,334.36c4.33,2.08,4.76,12.14-2.31,14.92a6.38,6.38,0,0,1,.53.51c4.16,4.44.68,11.76-5.41,11.76h-5.95a8.24,8.24,0,0,0-6.84-4.83c2-1.69,4.91-3.4,6.09-5.78.42-.84,1.28-6.5-.69-6.47a5.74,5.74,0,0,0,5.45-5.23c.13-2.31-1.17-4.43-2.43-6.37A8.5,8.5,0,0,0,475.23,319a2.38,2.38,0,0,1-.63-.82c-.29-.82.47-1.59,1-2.24a7.22,7.22,0,0,0-4.35-12,7.13,7.13,0,0,0-7.44-10.17c1.59-2.53.22-6.15-2.32-7.73s-5.81-1.47-8.69-.64a5.56,5.56,0,0,0-2.42-6.1,7.5,7.5,0,0,0-6.78-.44c.52-4.19-2.89-7-6.63-7.71-1.08-.2-4.46-.62-5.22.42,2.71-3.72-1.63-10-5.91-6.74,2.17-2.42,3.47-3.64,5.88-4.1,1.79-.34,4.25-.11,5.43.92,1.93-2.59,1.3-9-3.5-9.59,3.51-4.15,1.34-8.89-3.37-10.48,2-1,5-1.38,6.08-3.71,1.23-2.6-.31-5.12-2-7,4.68.94,9.34,6.05,6.2,11,5.89-.08,8.53,8.44,3.6,12.18,3.62.88,4.79,7.5.57,10.81,2.44,0,6.25,4.72,6.14,7.27,2.1-4.63,11.41-4.25,11.66,2.32,5.79-2.24,11.56,2.08,9.49,8.32,6.53,1.29,7.53,8.25,5.49,13.34,8.33.76,10.07,13.16,4.33,18.92C490.2,317.59,490.25,329.7,483.7,334.36Z" style="fill:#37474f"></path></g></g></g><g id="freepik--Floor--inject-8"><g id="freepik--floor--inject-8"><ellipse id="freepik--floor--inject-8" cx="252.22" cy="358.75" rx="226.55" ry="125.08" style="fill:#D38F1D"></ellipse><ellipse id="freepik--floor--inject-8" cx="252.22" cy="358.75" rx="226.55" ry="125.08" style="fill:#fff;opacity:0.6000000000000001"></ellipse><g style="opacity:0.4"><path d="M76.14,332.43a7,7,0,0,0-1.09-2.21,7.73,7.73,0,0,0-1-1.09c-.24-.21-.61-.56-1-.47-.11,0-.1.22-.05.29.23.31.57.51.78.84a4.64,4.64,0,0,1,.37.89,17.7,17.7,0,0,1,.74,2.45,18.2,18.2,0,0,1,.31,2.32c0,.39,0,.76.1,1.15a4.89,4.89,0,0,0,.26,1c0,.12.24.33.38.19a3.85,3.85,0,0,0,.69-2.81A9.19,9.19,0,0,0,76.14,332.43Z" style="fill:#D38F1D"></path><path d="M79,320.57c-1.64,2-1.66,5-1.68,7.49,0,1.51,0,3,0,4.53a18.15,18.15,0,0,0,.41,4.84c.06.17.41.51.52.2a14.26,14.26,0,0,0,.33-4.48c0-1.48,0-3,0-4.46a36.07,36.07,0,0,1,.2-4c.15-1.26.43-2.5.59-3.75C79.42,320.77,79.16,320.36,79,320.57Z" style="fill:#D38F1D"></path><path d="M82.84,328.59c-.85.17-1.47,1.14-1.85,1.86a9.22,9.22,0,0,0-.75,2.06,14.48,14.48,0,0,0-.36,2.45,3.53,3.53,0,0,0,.35,2.62c.07.08.27.2.38.1.64-.53.48-1.58.53-2.33a17.35,17.35,0,0,1,.35-2.49,12,12,0,0,1,.68-2,8.28,8.28,0,0,0,.85-1.93C83,328.81,83,328.56,82.84,328.59Z" style="fill:#D38F1D"></path><path d="M344.71,276.57a7,7,0,0,0-1.1-2.2,6.71,6.71,0,0,0-1-1.09c-.25-.22-.62-.57-1-.47-.11,0-.1.22-.05.29.23.3.57.51.77.83a5,5,0,0,1,.37.9,15,15,0,0,1,.74,2.45,18,18,0,0,1,.32,2.32c0,.38.05.76.1,1.15a4.89,4.89,0,0,0,.26,1.05c0,.12.24.33.37.18a3.82,3.82,0,0,0,.7-2.8A9.32,9.32,0,0,0,344.71,276.57Z" style="fill:#D38F1D"></path><path d="M347.56,264.72c-1.65,2-1.66,5-1.68,7.49,0,1.51,0,3,.05,4.53a18.15,18.15,0,0,0,.41,4.84c.06.17.4.51.52.19a14.81,14.81,0,0,0,.33-4.47c0-1.49,0-3,0-4.46a36,36,0,0,1,.2-4c.14-1.26.43-2.5.59-3.75C348,264.91,347.73,264.51,347.56,264.72Z" style="fill:#D38F1D"></path><path d="M351.41,272.74c-.85.16-1.47,1.13-1.85,1.85a9.09,9.09,0,0,0-.75,2.06,15.71,15.71,0,0,0-.37,2.46,3.49,3.49,0,0,0,.36,2.62c.07.08.27.19.38.1.63-.53.47-1.58.53-2.34a17.42,17.42,0,0,1,.35-2.48,11.53,11.53,0,0,1,.68-2,8.65,8.65,0,0,0,.85-1.92C351.61,273,351.57,272.71,351.41,272.74Z" style="fill:#D38F1D"></path><path d="M177.6,373a6.58,6.58,0,0,0-1-1.93,6.87,6.87,0,0,0-.92-1c-.21-.18-.54-.49-.84-.41-.09,0-.08.2,0,.25.2.27.5.45.68.74a4.41,4.41,0,0,1,.32.78,13.52,13.52,0,0,1,.65,2.14,15.24,15.24,0,0,1,.27,2c0,.34.05.67.09,1a4.19,4.19,0,0,0,.23.91c0,.11.21.29.33.17a3.42,3.42,0,0,0,.61-2.46A8.49,8.49,0,0,0,177.6,373Z" style="fill:#D38F1D"></path><path d="M180.09,362.66c-1.44,1.78-1.45,4.36-1.47,6.56,0,1.32,0,2.64,0,4a15.69,15.69,0,0,0,.36,4.23c0,.15.36.45.46.17a12.75,12.75,0,0,0,.28-3.91c0-1.3,0-2.6,0-3.9a31.79,31.79,0,0,1,.17-3.52c.13-1.1.38-2.18.51-3.28C180.46,362.83,180.24,362.48,180.09,362.66Z" style="fill:#D38F1D"></path><path d="M183.46,369.68c-.75.14-1.29,1-1.62,1.62a8.27,8.27,0,0,0-.66,1.8,14.3,14.3,0,0,0-.32,2.15,3.06,3.06,0,0,0,.31,2.29c.06.08.24.18.33.09.56-.46.42-1.38.47-2a14.36,14.36,0,0,1,.31-2.17,10,10,0,0,1,.59-1.78,7.44,7.44,0,0,0,.75-1.68C183.63,369.87,183.6,369.65,183.46,369.68Z" style="fill:#D38F1D"></path><path d="M438.72,327a6.36,6.36,0,0,1,1-2,6.9,6.9,0,0,1,.95-1c.23-.19.57-.51.88-.42.1,0,.09.2.05.26-.21.28-.52.47-.71.77a3.94,3.94,0,0,0-.34.82,14.69,14.69,0,0,0-.68,2.23,17.1,17.1,0,0,0-.28,2.12c0,.36,0,.7-.09,1.06a5.09,5.09,0,0,1-.24.95c0,.11-.23.31-.35.18a3.55,3.55,0,0,1-.63-2.57A8.41,8.41,0,0,1,438.72,327Z" style="fill:#D38F1D"></path><path d="M436.11,316.15c1.51,1.86,1.52,4.55,1.53,6.85,0,1.38,0,2.76,0,4.14a16,16,0,0,1-.38,4.43c-.05.15-.36.47-.47.18a13.37,13.37,0,0,1-.3-4.1c0-1.36,0-2.72,0-4.07a32.28,32.28,0,0,0-.19-3.68c-.13-1.16-.39-2.29-.53-3.44C435.72,316.33,436,316,436.11,316.15Z" style="fill:#D38F1D"></path><path d="M432.59,323.48c.78.15,1.34,1,1.69,1.7a8.49,8.49,0,0,1,.69,1.88,14.2,14.2,0,0,1,.33,2.25,3.23,3.23,0,0,1-.32,2.39c-.07.08-.25.18-.35.1-.58-.49-.44-1.45-.49-2.14a14.43,14.43,0,0,0-.32-2.27,10.15,10.15,0,0,0-.62-1.86,8.28,8.28,0,0,1-.78-1.75C432.41,323.68,432.44,323.45,432.59,323.48Z" style="fill:#D38F1D"></path><path d="M418,398.32a6.47,6.47,0,0,1,1-2,7,7,0,0,1,1-1c.22-.19.56-.51.88-.43.09,0,.09.21,0,.27-.21.28-.52.46-.71.76a5.26,5.26,0,0,0-.34.82,16.42,16.42,0,0,0-.67,2.24,17.13,17.13,0,0,0-.29,2.12c0,.36-.05.7-.09,1.05a4.35,4.35,0,0,1-.24,1c0,.11-.22.31-.34.17a3.5,3.5,0,0,1-.64-2.56A8.77,8.77,0,0,1,418,398.32Z" style="fill:#D38F1D"></path><path d="M415.35,387.47c1.51,1.86,1.52,4.56,1.54,6.86,0,1.38,0,2.76-.05,4.14a16.4,16.4,0,0,1-.37,4.43c-.05.15-.37.46-.48.17a13.59,13.59,0,0,1-.3-4.09c0-1.36,0-2.72,0-4.08a32.39,32.39,0,0,0-.18-3.68c-.13-1.15-.4-2.28-.54-3.43C415,387.65,415.2,387.29,415.35,387.47Z" style="fill:#D38F1D"></path><path d="M411.83,394.81c.78.15,1.35,1,1.69,1.7a7.86,7.86,0,0,1,.69,1.88,14.21,14.21,0,0,1,.34,2.25,3.23,3.23,0,0,1-.33,2.39c-.06.08-.24.18-.34.1-.59-.49-.44-1.45-.49-2.14a17.22,17.22,0,0,0-.32-2.27,10.19,10.19,0,0,0-.63-1.86,7.65,7.65,0,0,1-.77-1.76C411.65,395,411.69,394.78,411.83,394.81Z" style="fill:#D38F1D"></path><path d="M294.91,334.49a6.58,6.58,0,0,0-1-1.93,7.42,7.42,0,0,0-.91-.95c-.22-.19-.54-.49-.84-.41-.09,0-.09.2,0,.25.2.27.49.45.67.73a3.63,3.63,0,0,1,.32.79,13.1,13.1,0,0,1,.65,2.13,15.31,15.31,0,0,1,.27,2c0,.34.05.67.09,1a4.86,4.86,0,0,0,.23.91c0,.11.21.29.33.17a3.4,3.4,0,0,0,.6-2.45A8.66,8.66,0,0,0,294.91,334.49Z" style="fill:#D38F1D"></path><path d="M297.39,324.14c-1.44,1.78-1.45,4.35-1.46,6.54,0,1.31,0,2.64,0,3.95a15.62,15.62,0,0,0,.36,4.22c.05.15.35.45.45.17a12.69,12.69,0,0,0,.29-3.9c0-1.3,0-2.59,0-3.89a31.61,31.61,0,0,1,.17-3.51c.13-1.1.38-2.18.52-3.28C297.76,324.31,297.54,324,297.39,324.14Z" style="fill:#D38F1D"></path><path d="M300.75,331.14c-.74.14-1.28,1-1.61,1.62a7.71,7.71,0,0,0-.66,1.79,14.3,14.3,0,0,0-.32,2.15,3,3,0,0,0,.31,2.28c.06.08.24.17.33.09.56-.46.42-1.38.47-2a14.21,14.21,0,0,1,.3-2.16,10,10,0,0,1,.6-1.77,7.81,7.81,0,0,0,.74-1.68C300.92,331.33,300.89,331.11,300.75,331.14Z" style="fill:#D38F1D"></path><path d="M330.26,430.45a6.16,6.16,0,0,0-.95-1.92,6.89,6.89,0,0,0-.91-1c-.22-.18-.54-.49-.84-.4-.09,0-.09.19,0,.25a9.35,9.35,0,0,1,.67.73,3.77,3.77,0,0,1,.32.78,13.52,13.52,0,0,1,.65,2.14,15.09,15.09,0,0,1,.27,2c0,.34.05.67.09,1a4.77,4.77,0,0,0,.23.92c0,.1.21.29.33.16a3.39,3.39,0,0,0,.6-2.45A8.42,8.42,0,0,0,330.26,430.45Z" style="fill:#D38F1D"></path><path d="M332.75,420.11c-1.44,1.77-1.45,4.34-1.46,6.53,0,1.32,0,2.64,0,4a15.65,15.65,0,0,0,.36,4.22c.05.15.35.45.45.17a12.76,12.76,0,0,0,.29-3.91c0-1.29,0-2.59,0-3.89a31.73,31.73,0,0,1,.17-3.51c.13-1.1.38-2.17.52-3.27C333.12,420.28,332.9,419.93,332.75,420.11Z" style="fill:#D38F1D"></path><path d="M336.11,427.1c-.74.15-1.28,1-1.61,1.62a7.62,7.62,0,0,0-.66,1.8,14,14,0,0,0-.32,2.14,3.08,3.08,0,0,0,.31,2.29c.06.07.24.17.33.09.56-.47.42-1.38.47-2a14.52,14.52,0,0,1,.3-2.17,10.25,10.25,0,0,1,.6-1.77,7.4,7.4,0,0,0,.74-1.68C336.28,427.3,336.25,427.08,336.11,427.1Z" style="fill:#D38F1D"></path><path d="M365.41,357.38a6.58,6.58,0,0,0-1-1.93,7.42,7.42,0,0,0-.91-.95c-.22-.18-.54-.49-.84-.4-.09,0-.09.19,0,.25a9.35,9.35,0,0,1,.67.73,3.77,3.77,0,0,1,.32.78,13.52,13.52,0,0,1,.65,2.14,15.09,15.09,0,0,1,.27,2c0,.34.05.66.09,1a4.13,4.13,0,0,0,.23.92c0,.1.21.28.33.16a3.39,3.39,0,0,0,.6-2.45A8.74,8.74,0,0,0,365.41,357.38Z" style="fill:#D38F1D"></path><path d="M367.89,347c-1.44,1.78-1.45,4.35-1.46,6.54,0,1.32,0,2.64,0,4a15.65,15.65,0,0,0,.36,4.22c.05.15.35.45.45.17a12.76,12.76,0,0,0,.29-3.91c0-1.29,0-2.59,0-3.89a31.73,31.73,0,0,1,.17-3.51c.13-1.1.38-2.18.52-3.27C368.26,347.21,368,346.85,367.89,347Z" style="fill:#D38F1D"></path><path d="M371.25,354c-.74.15-1.28,1-1.61,1.62a7.62,7.62,0,0,0-.66,1.8,14,14,0,0,0-.32,2.14,3,3,0,0,0,.31,2.28c.06.08.24.18.33.1.56-.47.42-1.38.47-2a14.52,14.52,0,0,1,.3-2.17,10.25,10.25,0,0,1,.6-1.77,7.4,7.4,0,0,0,.74-1.68C371.42,354.22,371.39,354,371.25,354Z" style="fill:#D38F1D"></path><path d="M51.71,380.42a6.32,6.32,0,0,0-1-1.93,7.42,7.42,0,0,0-.91-.95c-.22-.18-.54-.49-.85-.41-.09,0-.08.2,0,.25.2.27.5.45.68.73a3.63,3.63,0,0,1,.32.79,13.1,13.1,0,0,1,.65,2.13,15.31,15.31,0,0,1,.27,2c0,.34,0,.67.09,1a4.19,4.19,0,0,0,.23.91c0,.11.21.29.32.17a3.36,3.36,0,0,0,.61-2.45A8.28,8.28,0,0,0,51.71,380.42Z" style="fill:#D38F1D"></path><path d="M54.2,370.07c-1.44,1.78-1.45,4.35-1.47,6.54,0,1.31,0,2.64.05,3.95a15.23,15.23,0,0,0,.36,4.22c0,.15.35.45.45.17a13,13,0,0,0,.29-3.9c0-1.3,0-2.59,0-3.89a31.61,31.61,0,0,1,.17-3.51c.13-1.1.38-2.18.51-3.27C54.57,370.24,54.35,369.89,54.2,370.07Z" style="fill:#D38F1D"></path><path d="M57.56,377.07c-.74.14-1.28,1-1.62,1.62a8.06,8.06,0,0,0-.65,1.8,14,14,0,0,0-.32,2.14,3,3,0,0,0,.31,2.28c.06.08.23.18.33.09.55-.46.42-1.38.47-2a14.21,14.21,0,0,1,.3-2.16A10,10,0,0,1,57,379a8.34,8.34,0,0,0,.74-1.68C57.73,377.26,57.7,377,57.56,377.07Z" style="fill:#D38F1D"></path></g></g></g><g id="freepik--Shadows--inject-8"><ellipse id="freepik--Shadow--inject-8" cx="236.44" cy="428.27" rx="51.53" ry="29.75" style="opacity:0.15"></ellipse><ellipse id="freepik--shadow--inject-8" cx="130.92" cy="445.63" rx="55.38" ry="31.97" style="opacity:0.15"></ellipse></g><g id="freepik--locators-2--inject-8"><g id="freepik--line--inject-8"><path d="M427.12,43.25q-.53-.51-1.08-1l.65-.76c.39.34.76.68,1.13,1Z" style="fill:#e0e0e0"></path><path d="M349.11,57.57l-.87-.49c.49-.88,1-1.75,1.55-2.59l.84.54C350.11,55.86,349.59,56.71,349.11,57.57Zm3.19-5-.81-.59c.59-.81,1.2-1.61,1.84-2.39l.77.64C353.48,51,352.88,51.8,352.3,52.59ZM356,48l-.74-.68c.68-.74,1.39-1.46,2.11-2.16l.69.72C357.4,46.58,356.7,47.29,356,48Zm4.26-4.1-.65-.76c.76-.65,1.56-1.28,2.35-1.88l.6.8C361.82,42.66,361,43.28,360.3,43.92Zm63.43-3.48c-.78-.57-1.61-1.12-2.45-1.63l.52-.86c.87.53,1.71,1.1,2.52,1.68ZM365,40.37l-.55-.83c.83-.55,1.69-1.08,2.57-1.58l.5.86C366.68,39.31,365.83,39.84,365,40.37Zm5.12-2.95-.45-.89c.89-.45,1.81-.88,2.73-1.27l.4.92C371.92,36.56,371,37,370.14,37.42Zm48.56-.06q-1.29-.66-2.67-1.26l.4-.92c.94.41,1.85.84,2.73,1.3Zm-43.13-2.27-.34-.94c.93-.34,1.89-.66,2.85-.95l.29,1C377.43,34.44,376.48,34.76,375.57,35.09ZM413.29,35c-.91-.33-1.86-.64-2.81-.92l.28-1c1,.29,1.94.61,2.87.94Zm-32.06-1.62-.23-1c1-.23,2-.44,2.94-.63l.18,1C383.16,33,382.18,33.15,381.23,33.39Zm26.39-.06c-1-.23-1.93-.43-2.9-.61l.18-1c1,.18,2,.38,3,.61ZM387,32.3l-.13-1c1-.13,2-.24,3-.31l.08,1C389,32.07,388,32.17,387,32.3Zm14.76,0c-1-.12-2-.22-2.94-.3l.07-1c1,.07,2,.17,3,.3Zm-8.86-.44,0-1q1.5,0,3,0l0,1C394.92,31.81,393.93,31.81,392.94,31.83Z" style="fill:#e0e0e0"></path><path d="M346.6,61.86h0a.49.49,0,0,1-.45-.3c-.2-.46-.4-.92-.6-1.36l.91-.42c.05.13.11.25.17.38l.18-.38.9.45c-.22.44-.44.89-.65,1.34A.49.49,0,0,1,346.6,61.86Z" style="fill:#e0e0e0"></path><path d="M344.21,57.5c-.46-.88-1-1.76-1.47-2.61l.85-.51c.53.86,1,1.76,1.51,2.66Zm-3.1-5.12c-.56-.82-1.15-1.63-1.76-2.42l.79-.62c.62.81,1.23,1.64,1.8,2.47Zm-3.67-4.74c-.65-.74-1.34-1.48-2-2.19l.71-.7c.72.72,1.42,1.48,2.08,2.24Zm-88.37-1.75-.79-.61c.62-.8,1.29-1.59,2-2.34l.73.67C250.32,44.34,249.67,45.11,249.07,45.89Zm84.17-2.52q-1.11-1-2.28-1.95l.63-.78c.79.64,1.57,1.31,2.32,2ZM253.1,41.49l-.69-.73c.74-.69,1.52-1.37,2.32-2l.63.78C254.58,40.16,253.82,40.82,253.1,41.49Zm75.48-1.89c-.81-.58-1.64-1.15-2.49-1.69l.54-.84c.86.55,1.71,1.13,2.53,1.72Zm-70.83-1.86-.57-.82c.82-.57,1.69-1.13,2.57-1.66l.51.85C259.4,36.63,258.56,37.18,257.75,37.74Zm65.78-1.38c-.86-.49-1.75-1-2.65-1.42l.45-.9c.91.46,1.82,1,2.69,1.45Zm-60.65-1.71-.47-.89c.9-.46,1.82-.91,2.75-1.33l.41.91C264.66,33.75,263.75,34.19,262.88,34.65Zm55.29-1c-.9-.4-1.84-.79-2.77-1.15l.35-.93c1,.36,1.91.76,2.82,1.16Zm-49.83-1.47-.35-.93c.93-.36,1.9-.71,2.87-1l.31,1C270.22,31.5,269.26,31.84,268.34,32.19Zm44.23-.69c-.95-.32-1.92-.62-2.87-.88l.26-1c1,.28,2,.58,2.92.9Zm-38.52-1.17-.26-1c1-.27,2-.51,3-.73l.22,1C276,29.83,275,30.07,274.05,30.33Zm32.73-.46c-1-.23-2-.43-2.94-.62l.18-1c1,.19,2,.4,3,.63Zm-26.87-.82-.16-1c1-.17,2-.32,3-.44l.13,1C281.89,28.73,280.89,28.88,279.91,29.05Zm21-.28c-1-.14-2-.26-3-.35l.09-1q1.53.15,3,.36Zm-15-.46-.08-1c1-.08,2-.14,3-.17l0,1C287.87,28.17,286.86,28.23,285.88,28.31Zm9-.12q-1.5-.07-3-.09v-1c1,0,2,0,3,.1Z" style="fill:#e0e0e0"></path><path d="M246.13,49.84a.52.52,0,0,1-.43-.25c-.25-.42-.5-.84-.77-1.26l.84-.54.36.58c.12-.2.25-.39.37-.58l.84.54c-.27.42-.52.83-.77,1.26a.52.52,0,0,1-.43.25Z" style="fill:#e0e0e0"></path><path d="M148.09,57.45,147.2,57c.48-.9,1-1.8,1.51-2.66l.85.52C149.05,55.69,148.55,56.56,148.09,57.45Zm3.1-5.14-.82-.56c.57-.84,1.18-1.67,1.8-2.47l.79.61C152.35,50.68,151.76,51.49,151.19,52.31Zm3.68-4.73-.76-.66c.67-.76,1.37-1.52,2.08-2.24l.71.7C156.21,46.09,155.52,46.83,154.87,47.58ZM243.2,45.9c-.6-.78-1.25-1.55-1.92-2.29l.74-.67c.69.76,1.35,1.55,2,2.35Zm-84.14-2.6-.67-.74c.75-.68,1.53-1.35,2.32-2l.63.77C160.56,42,159.8,42.63,159.06,43.3Zm80.12-1.82c-.72-.67-1.47-1.33-2.26-2l.63-.78c.8.65,1.58,1.33,2.31,2Zm-75.46-2-.59-.81c.82-.59,1.67-1.17,2.52-1.72l.55.84C165.35,38.37,164.52,38.94,163.72,39.52Zm70.81-1.81c-.8-.56-1.65-1.11-2.5-1.64l.52-.85c.87.53,1.73,1.1,2.56,1.68Zm-65.77-1.44-.5-.87c.88-.5,1.78-1,2.69-1.45l.45.89C170.51,35.3,169.62,35.77,168.76,36.27Zm60.66-1.67c-.88-.46-1.78-.91-2.7-1.32l.42-.91c.93.42,1.85.87,2.74,1.34Zm-55.3-1.05-.41-.91c.93-.41,1.88-.8,2.82-1.17l.36.93C176,32.76,175,33.15,174.12,33.55ZM224,32.11c-.93-.36-1.88-.7-2.83-1l.31-1c1,.32,1.94.67,2.88,1Zm-44.24-.73-.31-.95c1-.31,1.93-.62,2.91-.89l.28,1C181.63,30.77,180.66,31.07,179.72,31.38Zm38.53-1.15c-1-.26-1.94-.5-2.92-.72l.22-1c1,.22,2,.46,3,.73Zm-32.74-.48-.23-1c1-.23,2-.44,3-.62l.18,1C187.46,29.31,186.47,29.52,185.51,29.75Zm26.87-.82c-1-.17-2-.31-3-.44l.12-1c1,.12,2,.28,3,.45Zm-21-.29-.14-1q1.51-.21,3-.36l.09,1C193.41,28.38,192.41,28.5,191.42,28.64Zm15-.46c-1-.08-2-.13-3-.17l0-1c1,0,2,.1,3.05.18Zm-9-.12-.05-1c1,0,2-.08,3.05-.09v1C199.41,28,198.41,28,197.4,28.06Z" style="fill:#e0e0e0"></path><path d="M145.67,61.86a.49.49,0,0,1-.45-.29c-.21-.45-.43-.9-.65-1.34l.9-.45.18.38.17-.38.91.42c-.2.44-.4.9-.6,1.36a.49.49,0,0,1-.45.3Z" style="fill:#e0e0e0"></path><path d="M143.19,57.61c-.49-.86-1-1.71-1.53-2.53l.85-.54c.53.84,1.05,1.71,1.55,2.58Zm-3.19-5q-.87-1.2-1.8-2.34l.78-.63c.62.77,1.24,1.57,1.83,2.39Zm-3.73-4.58c-.67-.72-1.36-1.43-2.07-2.11l.7-.72c.72.69,1.42,1.42,2.1,2.16ZM132,44c-.74-.64-1.52-1.26-2.3-1.85l.6-.8c.8.6,1.59,1.23,2.35,1.88ZM68.55,40.43,68,39.62c.81-.58,1.65-1.14,2.52-1.67l.52.85C70.16,39.32,69.33,39.87,68.55,40.43Zm58.74,0c-.81-.54-1.66-1.06-2.51-1.55l.5-.87c.87.5,1.73,1,2.57,1.59Zm-5.11-3c-.88-.44-1.78-.86-2.69-1.24l.4-.92c.92.39,1.84.82,2.73,1.27Zm-48.6-.08-.46-.89c.88-.45,1.8-.89,2.73-1.29l.4.92C75.34,36.49,74.44,36.92,73.58,37.36Zm43.16-2.25c-.91-.34-1.86-.65-2.8-.94l.28-1c1,.3,1.93.62,2.87,1ZM79,35l-.34-.94c.93-.34,1.89-.66,2.86-.94l.29.95C80.86,34.37,79.91,34.68,79,35Zm32.08-1.61c-1-.24-1.92-.44-2.89-.63l.18-1c1,.19,2,.4,2.95.63Zm-26.42-.08-.23-1c1-.23,2-.44,2.95-.62l.18,1C86.59,32.89,85.62,33.1,84.66,33.32Zm20.6-1c-1-.13-2-.24-2.94-.31l.08-1c1,.08,2,.19,3,.32Zm-14.77,0-.13-1c1-.13,2-.23,3-.3l.08,1C92.46,32.05,91.47,32.15,90.49,32.27Zm8.87-.43c-.54,0-1.09,0-1.63,0l-1.33,0,0-1,1.41,0,1.61,0Z" style="fill:#e0e0e0"></path><path d="M65.14,43.25l-.69-.72c.37-.35.74-.69,1.13-1l.65.76C65.86,42.58,65.5,42.91,65.14,43.25Z" style="fill:#e0e0e0"></path></g><g id="freepik--Pin--inject-8"><g id="freepik--taj-mahal--inject-8"><path d="M137.29,82.07v.06H137v-.05Z" style="fill:#e0e0e0"></path><path d="M137.29,82.07v.06H137v-.05Z" style="fill:#e0e0e0;opacity:0.15"></path><path d="M139.57,82.13v0h-.27v0Z" style="fill:#e0e0e0"></path><path d="M139.57,82.13v0h-.27v0Z" style="fill:#e0e0e0;opacity:0.15"></path><path d="M152,82.13v0h-.27v0Z" style="fill:#e0e0e0"></path><path d="M152,82.13v0h-.27v0Z" style="fill:#e0e0e0;opacity:0.15"></path><path d="M154.32,82.07v.05h-.26v-.05Z" style="fill:#e0e0e0"></path><path d="M154.32,82.07v.05h-.26v-.05Z" style="fill:#e0e0e0;opacity:0.15"></path><path d="M139.3,82.08h.27a.14.14,0,0,0,0-.06s0-.08-.09-.1l-.06,0h0l0,0c-.05,0-.09.06-.09.1a.14.14,0,0,0,0,.06Zm9.79,0h2.22a.81.81,0,0,0,.16-.47,1,1,0,0,0-.73-.88l-.42-.15v-.06s0,0,0,0h0v-1s0,0,0,0a0,0,0,0,0,0,0c0,.41,0,.72,0,1h0l0,0v.06l-.43.16a1,1,0,0,0-.75.88.75.75,0,0,0,.15.46Zm-9.06,0h2.23a.81.81,0,0,0,.14-.46,1,1,0,0,0-.75-.88l-.43-.16v-.06a0,0,0,0,0,0,0h0c0-.31,0-.62,0-1a0,0,0,0,0,0,0s0,0,0,0c0,.41,0,.72,0,1h0s0,0,0,0v.06l-.42.15a1,1,0,0,0-.73.89A.8.8,0,0,0,140,82.08Zm2.68-.33h5.91a0,0,0,0,1,0,0,2.11,2.11,0,0,0,.41-1.23,2.63,2.63,0,0,0-2-2.35c-.28-.09-.81-.29-1.13-.41v-.17a.07.07,0,0,0-.07,0h-.16v-.17c.1,0,.18,0,.18-.05s-.08,0-.18,0V77c.16,0,.29,0,.29-.06s-.13-.06-.29-.07c0-.17,0-.33,0-.51.11,0,.19,0,.19,0s-.08,0-.18,0,0-.2,0-.3c.17,0,.3,0,.3-.07s-.13-.06-.3-.07v-.2s0,0,0,0a0,0,0,0,0,0,0v.2c-.16,0-.29,0-.29.07s.13.06.29.07v.3c-.11,0-.19,0-.19,0s.08,0,.19,0v.51c-.16,0-.29,0-.29.07s.13.06.29.06v.31c-.1,0-.19,0-.19,0s.09,0,.19.05v.17h-.16a.07.07,0,0,0-.07,0v.17c-.32.12-.85.32-1.14.41a2.63,2.63,0,0,0-2,2.35A2.09,2.09,0,0,0,142.71,81.75Zm-.2,6.32c0-1.94-.06-2.91-.09-4.84H139.9c0,1.94.08,2.91.16,4.85Zm-2.23-4c0-.32.89-.53.89-.53s.9.23.9.53,0,1.3,0,1.3h-1.78S140.29,84.38,140.28,84.07Zm.94,1.85s.89.23.9.54,0,1.3,0,1.3H140.4s0-1-.05-1.31S141.22,85.92,141.22,85.92ZM137,82.07h.26a.06.06,0,0,0,0,0,.13.13,0,0,0-.09-.11l-.05,0h0l0,0c-.05,0-.09.06-.08.1a.07.07,0,0,0,0,.06Zm.8,4.38,0,1.09h1.24l-.05-1.09c0-.07-.3-.22-.63-.32C138.1,86.23,137.83,86.38,137.83,86.45Zm-.77-3.24h0c.07,1.94.12,2.92.24,4.86h2.46c-.08-1.94-.12-2.91-.17-4.85h0c0-.43,0-.65,0-1.09h-.27c0,.44,0,.66,0,1.09h-2c0-.43,0-.65,0-1.08H137C137,82.56,137.05,82.78,137.06,83.21Zm2.28,3.24c0,.31,0,1.31,0,1.31h-1.76s0-1-.07-1.31.87-.53.87-.53S139.33,86.15,139.34,86.45Zm-1-2.92s.91.23.92.53,0,1.31,0,1.31h-1.79s0-1,0-1.31S138.34,83.53,138.34,83.53Zm11.78,2.61c-.34.09-.63.24-.63.31,0,.44,0,.66,0,1.09h1.24c0-.44,0-.65,0-1.09C150.72,86.38,150.44,86.23,150.12,86.14Zm-1.63-4.24h-5.64v.36h5.64Zm-6.68,2.17a1.33,1.33,0,0,0-.64-.31c-.34.09-.62.24-.62.31,0,.44,0,.66,0,1.09h1.25C141.82,84.73,141.81,84.51,141.81,84.07Zm9,1.09c0-.44,0-.66,0-1.09,0-.07-.29-.22-.62-.31-.34.09-.63.24-.63.31,0,.44,0,.66,0,1.09Zm1-3.08H152a.14.14,0,0,0,0-.06.11.11,0,0,0-.09-.1l-.05,0h0l-.05,0a.1.1,0,0,0-.09.1.13.13,0,0,0,0,.06Zm-.46.13h-2.23c0,.36,0,.54,0,.9h2.22C151.3,82.74,151.3,82.57,151.31,82.21Zm-2,.76v-.45a.2.2,0,0,1,.22-.17.2.2,0,0,1,.21.17c0,.18,0,.27,0,.45Zm.68,0c0-.18,0-.27,0-.45s.1-.17.22-.17.21.07.21.16,0,.28,0,.46Zm.69,0c0-.18,0-.27,0-.45s.1-.16.21-.16.22.07.22.16,0,.27,0,.45Zm-5,1c-.63.2-1.28.55-1.28.75,0,1.35,0,2,0,3.37,1,0,1.5,0,2.51,0,0-1.35,0-2,0-3.37C147,84.49,146.31,84.15,145.67,84Zm6.1-1.82c0,.44,0,.65,0,1.09h0c-.05,1.94-.08,2.91-.16,4.85h2.46c.11-1.95.16-2.92.23-4.86h0c0-.44,0-.65,0-1.09h-.26c0,.44,0,.65,0,1.09h-2c0-.44,0-.65,0-1.09Zm1.94,5.62H152s0-1,.06-1.31.91-.53.91-.53.88.21.86.53S153.71,87.75,153.71,87.75ZM153,83.53s.9.21.89.53-.06,1.3-.06,1.3H152s0-1,.05-1.31S153,83.53,153,83.53Zm-5.55,4.54h1.22c.05-2.26.07-3.39.09-5.65h-6.18c0,2.26,0,3.39.09,5.65h1.22s0-2.68,0-3.37,1.81-1.2,1.81-1.2,1.82.5,1.82,1.2S147.45,88.07,147.45,88.07Zm1.39,0h2.45c.08-1.94.11-2.91.15-4.85h-2.52C148.9,85.16,148.88,86.13,148.84,88.07Zm2.11-.31H149.2s0-1,0-1.31.89-.53.89-.53.89.22.88.53S151,87.76,151,87.76Zm-.77-4.22s.89.21.88.52,0,1.31,0,1.31h-1.78s0-1,0-1.3S150.18,83.54,150.18,83.54Zm-7.92-1.33H140c0,.36,0,.54,0,.9h2.22C142.26,82.75,142.26,82.57,142.26,82.21Zm-2,.76v-.46c0-.09.09-.16.21-.16a.19.19,0,0,1,.21.17c0,.18,0,.27,0,.45Zm.68,0v-.45c0-.09.09-.17.21-.17a.19.19,0,0,1,.21.17V83Zm.69,0c0-.18,0-.27,0-.45a.2.2,0,0,1,.22-.17.2.2,0,0,1,.21.17c0,.18,0,.27,0,.45Zm.25,4.58c0-.44,0-.66,0-1.1,0-.07-.29-.22-.62-.31-.34.09-.62.24-.61.31,0,.44,0,.66,0,1.1ZM139,85.16c0-.44,0-.66,0-1.1a1.56,1.56,0,0,0-.64-.31c-.34.09-.63.24-.62.31,0,.44,0,.66,0,1.1Zm15-3.09h.27a.14.14,0,0,0,0-.06.11.11,0,0,0-.09-.1l-.05,0h0l-.06,0a.12.12,0,0,0-.09.1.14.14,0,0,0,0,.06Zm-.48,3.08.05-1.09c0-.07-.29-.22-.63-.31-.34.09-.63.25-.63.31,0,.44,0,.66,0,1.1Zm-.66,1c-.35.1-.64.25-.64.31,0,.44,0,.66,0,1.1h1.23c0-.44,0-.66.06-1.1A1.36,1.36,0,0,0,152.91,86.13Z" style="fill:#e0e0e0"></path></g><path id="freepik--pin--inject-8" d="M145.67,67.15a15.53,15.53,0,0,0-15.28,15.77v2c0,6.71,9.37,19.32,13.23,24.12a2.53,2.53,0,0,0,3.81.08c4.35-5,13.52-17,13.52-24.2v-2A15.53,15.53,0,0,0,145.67,67.15Zm0,26.22a10.14,10.14,0,1,1,10.15-10.14A10.13,10.13,0,0,1,145.67,93.37Z" style="fill:#ebebeb"></path></g><g id="freepik--pin--inject-8"><g id="freepik--Coliseum--inject-8"><path d="M67.73,64.42l.45,1.5h.17c0-.17,0-.6,0-.83a.29.29,0,0,1,.27-.29h0a.32.32,0,0,1,.31.29c0,.22,0,.66,0,.83h.3c0-.19,0-.64,0-.9a.25.25,0,0,1,.24-.26h0a.27.27,0,0,1,.27.26c0,.25,0,.71,0,.9h.28c0-.22,0-.68,0-1a.23.23,0,0,1,.21-.23h0a.24.24,0,0,1,.24.23c0,.28,0,.75,0,1h.25c0-.24,0-.72,0-1a.19.19,0,0,1,.18-.19h0a.2.2,0,0,1,.2.19c0,.31,0,.79,0,1h.22c0-.27,0-.76,0-1.1a.16.16,0,0,1,.15-.16h0a.18.18,0,0,1,.17.17c0,.33,0,.82,0,1.09h.17c0-.3,0-.8,0-1.15a.12.12,0,0,1,.11-.13h0a.14.14,0,0,1,.14.14c0,.35,0,.84,0,1.14h.12c0-.32,0-.82,0-1.2,0,0,0-.08.08-.09h0a.11.11,0,0,1,.1.11c0,.37,0,.86,0,1.18h.16c0-.61,0-1.25-.07-1.91,0,0-1,.17-2.57.28S67.73,64.42,67.73,64.42Z" style="fill:#e0e0e0"></path><path d="M67.72,64.3s.71,0,2.28-.13,2.56-.28,2.56-.28v-.14c0-.55,0-.83,0-1.38,0,0-1-.08-3.1-.15s-3.18,0-3.18,0c.21.57.31.85.51,1.43l.26,0c0-.32,0-.47,0-.79a.37.37,0,0,1,.35-.38h0a.4.4,0,0,1,.39.38c0,.4,0,.6,0,1h-.09C67.71,64,67.72,64.12,67.72,64.3Zm4.33-1.65h0a.15.15,0,0,1,.14.14c0,.3,0,.45,0,.75l-.27,0c0-.32,0-.48,0-.8A.11.11,0,0,1,72.05,62.65Zm-.55-.07h0a.19.19,0,0,1,.19.18c0,.33,0,.49,0,.83l-.36,0c0-.34,0-.52,0-.87A.14.14,0,0,1,71.5,62.58Zm-.6-.08h0a.23.23,0,0,1,.23.23c0,.36,0,.54,0,.9l-.45,0c0-.37,0-.56,0-.94A.22.22,0,0,1,70.9,62.5Zm-.73,0h0a.29.29,0,0,1,.29.27c0,.37,0,.56,0,.93l-.55,0c0-.39,0-.59,0-1A.26.26,0,0,1,70.17,62.48Zm-.84,0h0a.32.32,0,0,1,.33.31c0,.38,0,.56,0,.94l-.64,0c0-.39,0-.59,0-1A.3.3,0,0,1,69.33,62.48Zm-.94,0h0a.38.38,0,0,1,.38.36c0,.39,0,.58,0,1l-.72,0c0-.41,0-.61,0-1A.35.35,0,0,1,68.39,62.45Z" style="fill:#e0e0e0"></path><path d="M64.75,64.31h-.94c-1.1,0-4,0-5.47,0s-2.19,0-2.19,0c0,.52,0,1.12,0,1.54h.31c0-.21,0-.69,0-1a.18.18,0,0,1,.15-.17h0a.13.13,0,0,1,.13.14v1H57V65a.22.22,0,0,1,.2-.21h0a.18.18,0,0,1,.18.18c0,.28,0,.75,0,1h.26V65a.26.26,0,0,1,.25-.26h0a.23.23,0,0,1,.23.23v.91h.31v-.83a.33.33,0,0,1,.31-.31h0a.29.29,0,0,1,.28.28v.86h.37v-.78a.36.36,0,0,1,.35-.35h0a.32.32,0,0,1,.33.32v.81h.41v-.73a.42.42,0,0,1,.4-.41h0a.39.39,0,0,1,.38.37v.77h.45c0-.12,0-.53,0-.69a.47.47,0,0,1,.44-.46h0a.41.41,0,0,1,.42.41c0,.19,0,.61,0,.74h.42c0-.1,0-.48,0-.6a.55.55,0,0,1,.52-.55h0a.5.5,0,0,1,.51.49c0,.15,0,.55,0,.67H65c-.07-.17-.15-.63-.24-.86S64.76,64.61,64.75,64.31Z" style="fill:#e0e0e0"></path><path d="M66.17,61.09c0,.34,0,.51,0,.85l0,.14s.61,0,1.79,0v-.19a.27.27,0,0,1,.26-.29.24.24,0,0,1,.2.07.24.24,0,0,1,.09.18v.24l.84,0,1.55,0v-.28a.18.18,0,0,1,.16-.18.15.15,0,0,1,.17.15c0,.13,0,.2,0,.33.82,0,1.21.08,1.21.08,0-.46,0-.68,0-1.14,0,0-.39-.41-2.79-.71a24.51,24.51,0,0,0-4.37-.11c0,.34,0,.5,0,.83Zm4.49-.25c0,.24,0,.35,0,.59l-.3,0c0-.24,0-.36,0-.6A1.53,1.53,0,0,1,70.66,60.84Zm-1.39-.15c0,.25,0,.37,0,.62H69c0-.25,0-.38,0-.62Zm-1.86-.09c0,.25,0,.37,0,.62h-.3c0-.25,0-.38,0-.62Z" style="fill:#e0e0e0"></path><path d="M56.23,60.25a10.59,10.59,0,0,1,2.25-.94,9.32,9.32,0,0,1,3.28-.42v-.4l-.28-.2h-.21c-.24-.67-.36-1-.59-1.68a.36.36,0,0,0-.15-.19l0,0a.47.47,0,0,1-.13-.15.36.36,0,0,0-.33-.21h-.12a16.78,16.78,0,0,0-2.36.9c-.94.51-1.17.71-1.26.91a3.4,3.4,0,0,0,0,.91C56.27,59,56.23,60.25,56.23,60.25Zm2.66-2.56.29-.06c0,.25,0,.37,0,.62l-.3.06C58.88,58.06,58.88,57.94,58.89,57.69ZM58,58l.29-.1c0,.25,0,.37,0,.62l-.3.1C58,58.33,58,58.21,58,58Zm-.85.38.3-.15c0,.24,0,.36,0,.6l-.31.14C57.13,58.69,57.13,58.57,57.14,58.34Z" style="fill:#e0e0e0"></path><path d="M56.22,60.75a10.59,10.59,0,0,1,2.25-.94,9.61,9.61,0,0,1,3.29-.42c.09,0,.07-.13.07-.18s0-.17-.07-.18a9.83,9.83,0,0,0-3.29.41,11.29,11.29,0,0,0-2.24.94c-.07,0-.1.14-.1.22S56.15,60.79,56.22,60.75Z" style="fill:#e0e0e0"></path><path d="M56.16,64.23s.72,0,2.18,0h5.47l1.14,0V65a.45.45,0,0,1,.28-.1.55.55,0,0,1,.33.12.47.47,0,0,1,.14.32c0,.14,0,.53,0,.63h.52c0-.11,0-.5,0-.65a.47.47,0,0,1,.78-.35.42.42,0,0,1,.14.32c0,.16,0,.56,0,.68H68l-.41-1.37s0-.49,0-.82c0,0-2.64.11-3.75.12H58.34c-1.45,0-2.18,0-2.18,0s-.12,0-.12.14S56,64.24,56.16,64.23Z" style="fill:#e0e0e0"></path><path d="M56.18,62.58s.83-.2,2.53-.42c.51,0,.77,0,1.27-.1C61,62,62.17,62,63,62c.13,0,.13-.08.12-.18s0-.14-.12-.14c-1.23,0-3.11.07-4.22.21l-.62.08-1,.14c-.68.11-1,.2-1,.2s-.1.09-.11.16S56.08,62.6,56.18,62.58Z" style="fill:#e0e0e0"></path><path d="M63.27,61.52v.42h.13c.07.22.1.32.16.54a.42.42,0,0,1,.32-.15.41.41,0,0,1,.42.41c0,.3,0,.45,0,.74h-.44l.07.23c1.06,0,1.59,0,2.65-.07L66.05,62c0-.28,0-.42,0-.7-1,0-1.51,0-2.53.06l-.32-.23v.44Zm1.94.78a.41.41,0,0,1,.43.4l0,.75-.85,0v-.74A.43.43,0,0,1,65.21,62.3Z" style="fill:#e0e0e0"></path><path d="M58.47,59.94a8.42,8.42,0,0,0-.89.3,10.3,10.3,0,0,0-1.36.63c0,.51,0,.76,0,1.27a25.94,25.94,0,0,1,2.62-.43,40.89,40.89,0,0,1,4.22-.2v-.43h-.74c-.22-.62-.32-.94-.53-1.56A9.37,9.37,0,0,0,58.47,59.94Zm-1.66,1.67-.31.06c0-.26,0-.39,0-.65a.17.17,0,0,1,.16-.17h0a.13.13,0,0,1,.13.13C56.82,61.23,56.82,61.36,56.81,61.61Zm.62-.1-.42.07c0-.3,0-.44,0-.73a.22.22,0,0,1,.21-.22h0a.18.18,0,0,1,.18.19C57.44,61.09,57.43,61.23,57.43,61.51Zm.75-.11-.52.07c0-.32,0-.48,0-.81a.28.28,0,0,1,.27-.27h0a.25.25,0,0,1,.23.25C58.19,60.94,58.18,61.09,58.18,61.4Zm.88-.11-.25,0-.37,0c0-.35,0-.53,0-.88a.33.33,0,0,1,.32-.33h0a.29.29,0,0,1,.28.3C59.07,60.79,59.07,61,59.06,61.29Zm1-.08-.73,0c0-.39,0-.58,0-1a.38.38,0,0,1,.37-.38h0a.35.35,0,0,1,.34.36C60.08,60.64,60.08,60.83,60.08,61.21Zm1.15-.06-.84,0V60.11a.44.44,0,0,1,.42-.43h0a.41.41,0,0,1,.4.4Z" style="fill:#e0e0e0"></path><path d="M62.19,62.29h0a.41.41,0,0,1,.42.41c0,.42,0,.62,0,1h1.17c-.21-.66-.32-1-.52-1.65H63a41.29,41.29,0,0,0-4.24.2,25.94,25.94,0,0,0-2.62.43c0,.42,0,.64,0,1.06h.31c0-.31,0-.47,0-.78a.17.17,0,0,1,.16-.17h0a.12.12,0,0,1,.12.13c0,.32,0,.49,0,.81H57c0-.33,0-.49,0-.83a.24.24,0,0,1,.21-.22h0a.19.19,0,0,1,.18.19c0,.34,0,.51,0,.86h.23v-.88a.3.3,0,0,1,.27-.27h0a.24.24,0,0,1,.23.25c0,.36,0,.54,0,.9h.27v-.93a.34.34,0,0,1,.32-.32h0a.31.31,0,0,1,.29.3c0,.38,0,.57,0,1h.3v-1a.38.38,0,0,1,.37-.38h0a.35.35,0,0,1,.35.35v1h.31v-1a.44.44,0,0,1,.42-.43h0a.41.41,0,0,1,.4.41v1h.52v-1A.45.45,0,0,1,62.19,62.29Z" style="fill:#e0e0e0"></path></g><path id="freepik--pin--inject-8" d="M64.21,45.77A15.53,15.53,0,0,0,48.93,61.53v2c0,6.71,9.38,19.32,13.23,24.11a2.54,2.54,0,0,0,3.81.09c4.36-5,13.53-17,13.53-24.2v-2A15.53,15.53,0,0,0,64.21,45.77Zm0,26.22A10.14,10.14,0,1,1,74.36,61.85,10.13,10.13,0,0,1,64.21,72Z" style="fill:#ebebeb"></path></g><g id="freepik--pin--inject-8"><path id="freepik--pin--inject-8" d="M331.28,82.92v2c0,7.22,9.17,19.16,13.52,24.2a2.53,2.53,0,0,0,3.81-.08c3.86-4.8,13.23-17.41,13.23-24.12v-2a15.29,15.29,0,1,0-30.56,0Zm5.14.31a10.14,10.14,0,1,1,10.14,10.14A10.14,10.14,0,0,1,336.42,83.23Z" style="fill:#e0e0e0"></path><g id="freepik--Palm--inject-8"><path d="M348.16,91.64h1.55c1-5.13.63-11-1.91-14.07l-.5,0C349.37,80.39,349.51,86.32,348.16,91.64Z" style="fill:#e0e0e0"></path><path d="M347.54,77.39c-.17-.27-.06-.23-.32-.55a3,3,0,0,0-2-.91,4.22,4.22,0,0,0-3.7,1.28,2.64,2.64,0,0,1,2,0c.25-.22.51-.43.77-.64-.08.27-.17.53-.26.8a2.7,2.7,0,0,0,.94.12c.29-.28.59-.53.9-.78-.16.26-.32.52-.47.78A7.61,7.61,0,0,0,347.54,77.39Z" style="fill:#ebebeb"></path><path d="M347.32,77.43s0-.43.75-1a4.45,4.45,0,0,1,3.27-.65,3.63,3.63,0,0,1,2,1.17,3.43,3.43,0,0,0-1.71-.1,3.9,3.9,0,0,0-1.21-.71,4.54,4.54,0,0,1,.71.81,2.42,2.42,0,0,1-1.29.25,1.79,1.79,0,0,0-1-.82,1.47,1.47,0,0,1,.6.87A10.64,10.64,0,0,1,347.32,77.43Z" style="fill:#ebebeb"></path><path d="M347.32,77.43a4,4,0,0,1,2.48.12,4.09,4.09,0,0,1,2.76,2.61,2.45,2.45,0,0,0-1.88-.78l-.47-.91-.12.85a2.33,2.33,0,0,1-1-.33l-.4-1.15v.93A3.52,3.52,0,0,1,347.32,77.43Z" style="fill:#ebebeb"></path><path d="M347.32,77.43a1.64,1.64,0,0,0-1-.06,4.72,4.72,0,0,0-2.73,1.83,3.56,3.56,0,0,0-.59,2.21,3.28,3.28,0,0,1,1.12-1.26,3.83,3.83,0,0,1,.36-1.34,4.79,4.79,0,0,0,.06,1.06,2.29,2.29,0,0,0,1.07-.72,1.76,1.76,0,0,1,.11-1.24,1.46,1.46,0,0,0,.19,1S346.6,78.23,347.32,77.43Z" style="fill:#ebebeb"></path><path d="M347.5,82.77a2.84,2.84,0,0,1-.13-1.25c0-.17.07-.35.12-.53a1.42,1.42,0,0,1-.47-1,1.17,1.17,0,0,0,.57.62,5.71,5.71,0,0,0,.24-1.16,1.31,1.31,0,0,1-.53-.64,1.25,1.25,0,0,0,.58.34,2.4,2.4,0,0,0-.56-1.73s-.46.18-.86,1.56A3.55,3.55,0,0,0,347.5,82.77Z" style="fill:#ebebeb"></path></g><g id="freepik--palm--inject-8"><path d="M345.31,91.64h1c-.3-3.33-1.56-6.61-3.83-8.28l-.37.06C344.05,85,345.21,88.2,345.31,91.64Z" style="fill:#e0e0e0"></path><path d="M342.26,83.56c.09-.23,0-.18.15-.45a2.29,2.29,0,0,1,1.33-1,3.13,3.13,0,0,1,2.89.4,2,2,0,0,0-1.46.3c-.21-.13-.43-.25-.65-.36.09.18.2.36.3.54a1.9,1.9,0,0,1-.67.23c-.25-.16-.51-.31-.77-.45l.46.51A6,6,0,0,1,342.26,83.56Z" style="fill:#ebebeb"></path><path d="M342.43,83.56s-.06-.32-.69-.59a3.21,3.21,0,0,0-2.48,0,2.65,2.65,0,0,0-1.3,1.14,2.5,2.5,0,0,1,1.23-.32,2.81,2.81,0,0,1,.79-.69,3.34,3.34,0,0,0-.41.69,1.78,1.78,0,0,0,1,0,1.31,1.31,0,0,1,.59-.74,1.11,1.11,0,0,0-.31.72A7.83,7.83,0,0,0,342.43,83.56Z" style="fill:#ebebeb"></path><path d="M342.43,83.56A3.36,3.36,0,0,0,339,86.31a1.83,1.83,0,0,1,1.26-.84l.22-.73.21.6a1.81,1.81,0,0,0,.65-.38l.13-.9.13.68A2.61,2.61,0,0,0,342.43,83.56Z" style="fill:#ebebeb"></path><path d="M342.43,83.56a1.2,1.2,0,0,1,.72-.19,3.54,3.54,0,0,1,2.26.94,2.58,2.58,0,0,1,.75,1.54,2.34,2.34,0,0,0-1-.76,2.83,2.83,0,0,0-.45-.93,3.58,3.58,0,0,1,.11.78,1.72,1.72,0,0,1-.89-.37,1.37,1.37,0,0,0-.26-.9,1.1,1.1,0,0,1,0,.78S343.07,84,342.43,83.56Z" style="fill:#ebebeb"></path><path d="M343.07,87.49a2,2,0,0,0-.09-.93,3,3,0,0,0-.16-.37,1.1,1.1,0,0,0,.2-.8.83.83,0,0,1-.33.54,3.69,3.69,0,0,1-.34-.81,1,1,0,0,0,.3-.55,1.1,1.1,0,0,1-.38.34,1.78,1.78,0,0,1,.16-1.35s.37.06.86,1A2.67,2.67,0,0,1,343.07,87.49Z" style="fill:#ebebeb"></path></g></g><g id="freepik--pin--inject-8"><path id="freepik--pin--inject-8" d="M412.73,61.53v2c0,7.22,9.17,19.16,13.53,24.2a2.54,2.54,0,0,0,3.81-.09c3.86-4.79,13.23-17.4,13.23-24.11v-2a15.29,15.29,0,1,0-30.57,0Zm5.14.32A10.15,10.15,0,1,1,428,72,10.14,10.14,0,0,1,417.87,61.85Z" style="fill:#e0e0e0"></path><polygon points="423.8 65.46 436.71 65.46 427.97 54.43 423.8 65.46" style="fill:#ebebeb"></polygon><polygon points="423.24 65.46 427.41 54.43 419.62 65.46 423.24 65.46" style="fill:#e0e0e0"></polygon></g></g><g id="freepik--locator-1--inject-8"><g id="freepik--pin--inject-8"><g id="freepik--arc-of-triumph--inject-8"><path d="M242.21,83.83c0-.34,0-.52,0-.86-3,0-4.51,0-7.52.13,0,.35,0,.52,0,.87C237.72,83.89,239.22,83.86,242.21,83.83Z" style="fill:#D38F1D"></path><path d="M246.13,79s-7,0-11.64.16c.07,1.46.1,2.2.17,3.66,3-.08,4.52-.11,7.53-.14,0-.19,0-.28,0-.47C242.15,80.41,246.13,79,246.13,79Z" style="fill:#D38F1D"></path><path d="M257.26,90c.12-2.29.18-3.43.29-5.71-3-.08-4.49-.1-7.48-.12,0,2.28,0,3.43-.09,5.71C252.89,89.88,254.34,89.91,257.26,90Zm-3.48-4.92a1.91,1.91,0,0,1,1.87,2,2,2,0,0,1-2,2,1.93,1.93,0,0,1-1.88-2A2,2,0,0,1,253.78,85.06Z" style="fill:#D38F1D"></path><path d="M246.14,79s4,1.21,4,3.2v.47c3,0,4.51,0,7.53.11.07-1.46.1-2.19.16-3.65C253.11,79,246.14,79,246.14,79Z" style="fill:#D38F1D"></path><path d="M253.66,88.71a1.68,1.68,0,0,0,1.68-1.63,1.62,1.62,0,0,0-1.57-1.7A1.68,1.68,0,0,0,252.09,87,1.61,1.61,0,0,0,253.66,88.71Z" style="fill:#D38F1D"></path><path d="M238.65,88.73A1.61,1.61,0,0,0,240.21,87a1.67,1.67,0,0,0-1.69-1.63A1.59,1.59,0,0,0,237,87.1,1.69,1.69,0,0,0,238.65,88.73Z" style="fill:#D38F1D"></path><path d="M250.09,83c0,.35,0,.53,0,.87,3,0,4.49.05,7.49.12,0-.35,0-.52,0-.87C254.59,83,253.09,83,250.09,83Z" style="fill:#D38F1D"></path><path d="M259.25,72.3q-13.12,0-26.25,0c0,.27,0,.41,0,.69h.6l0,.67q12.48-.08,25,0c0-.26,0-.4,0-.66h.59C259.23,72.71,259.24,72.58,259.25,72.3Z" style="fill:#D38F1D"></path><path d="M242.37,91.75c0-.49,0-.92,0-1.55-2.9,0-4.36.06-7.27.14,0,.57.06,1,.09,1.41Z" style="fill:#D38F1D"></path><path d="M242.33,89.87c0-2.28-.07-3.42-.11-5.71-3,0-4.48.06-7.48.14.12,2.28.18,3.43.31,5.71C238,89.93,239.42,89.9,242.33,89.87Zm-3.82-4.79a2,2,0,0,1,2,2,1.93,1.93,0,0,1-1.86,2,2,2,0,0,1-2-2A1.92,1.92,0,0,1,238.51,85.08Z" style="fill:#D38F1D"></path><path d="M257.16,91.75c0-.45,0-.86.08-1.45-2.91-.07-4.36-.09-7.27-.11v0c0,.65,0,1.09,0,1.59Z" style="fill:#D38F1D"></path><path d="M233.8,77.43c0,.56,0,.83.06,1.38q12.28-.25,24.54,0c0-.55,0-.83.06-1.38C250.23,77.24,242,77.26,233.8,77.43Z" style="fill:#D38F1D"></path><path d="M233.14,75.75c0,.27,0,.41,0,.69h.59c0,.26,0,.4,0,.67q12.35-.27,24.68,0c0-.27,0-.41,0-.67h.59c0-.28,0-.42,0-.69Q246.13,75.67,233.14,75.75Z" style="fill:#D38F1D"></path><path d="M258,74q-11.45,0-22.88,0l0,1.38q11.4,0,22.78,0Z" style="fill:#D38F1D"></path></g><g style="opacity:0.30000000000000004"><g id="freepik--arc-of-triumph--inject-8"><path d="M242.21,83.83c0-.34,0-.52,0-.86-3,0-4.51,0-7.52.13,0,.35,0,.52,0,.87C237.72,83.89,239.22,83.86,242.21,83.83Z" style="fill:#fff"></path><path d="M246.13,79s-7,0-11.64.16c.07,1.46.1,2.2.17,3.66,3-.08,4.52-.11,7.53-.14,0-.19,0-.28,0-.47C242.15,80.41,246.13,79,246.13,79Z" style="fill:#fff"></path><path d="M257.26,90c.12-2.29.18-3.43.29-5.71-3-.08-4.49-.1-7.48-.12,0,2.28,0,3.43-.09,5.71C252.89,89.88,254.34,89.91,257.26,90Zm-3.48-4.92a1.91,1.91,0,0,1,1.87,2,2,2,0,0,1-2,2,1.93,1.93,0,0,1-1.88-2A2,2,0,0,1,253.78,85.06Z" style="fill:#fff"></path><path d="M246.14,79s4,1.21,4,3.2v.47c3,0,4.51,0,7.53.11.07-1.46.1-2.19.16-3.65C253.11,79,246.14,79,246.14,79Z" style="fill:#fff"></path><path d="M253.66,88.71a1.68,1.68,0,0,0,1.68-1.63,1.62,1.62,0,0,0-1.57-1.7A1.68,1.68,0,0,0,252.09,87,1.61,1.61,0,0,0,253.66,88.71Z" style="fill:#fff"></path><path d="M238.65,88.73A1.61,1.61,0,0,0,240.21,87a1.67,1.67,0,0,0-1.69-1.63A1.59,1.59,0,0,0,237,87.1,1.69,1.69,0,0,0,238.65,88.73Z" style="fill:#fff"></path><path d="M250.09,83c0,.35,0,.53,0,.87,3,0,4.49.05,7.49.12,0-.35,0-.52,0-.87C254.59,83,253.09,83,250.09,83Z" style="fill:#fff"></path><path d="M259.25,72.3q-13.12,0-26.25,0c0,.27,0,.41,0,.69h.6l0,.67q12.48-.08,25,0c0-.26,0-.4,0-.66h.59C259.23,72.71,259.24,72.58,259.25,72.3Z" style="fill:#fff"></path><path d="M242.37,91.75c0-.49,0-.92,0-1.55-2.9,0-4.36.06-7.27.14,0,.57.06,1,.09,1.41Z" style="fill:#fff"></path><path d="M242.33,89.87c0-2.28-.07-3.42-.11-5.71-3,0-4.48.06-7.48.14.12,2.28.18,3.43.31,5.71C238,89.93,239.42,89.9,242.33,89.87Zm-3.82-4.79a2,2,0,0,1,2,2,1.93,1.93,0,0,1-1.86,2,2,2,0,0,1-2-2A1.92,1.92,0,0,1,238.51,85.08Z" style="fill:#fff"></path><path d="M257.16,91.75c0-.45,0-.86.08-1.45-2.91-.07-4.36-.09-7.27-.11v0c0,.65,0,1.09,0,1.59Z" style="fill:#fff"></path><path d="M233.8,77.43c0,.56,0,.83.06,1.38q12.28-.25,24.54,0c0-.55,0-.83.06-1.38C250.23,77.24,242,77.26,233.8,77.43Z" style="fill:#fff"></path><path d="M233.14,75.75c0,.27,0,.41,0,.69h.59c0,.26,0,.4,0,.67q12.35-.27,24.68,0c0-.27,0-.41,0-.67h.59c0-.28,0-.42,0-.69Q246.13,75.67,233.14,75.75Z" style="fill:#fff"></path><path d="M258,74q-11.45,0-22.88,0l0,1.38q11.4,0,22.78,0Z" style="fill:#fff"></path></g></g><path id="freepik--pin--inject-8" d="M246.12,54.24c-14.16,0-25.63,11.84-25.63,26.44V84c0,11.25,15.72,32.4,22.19,40.44a4.25,4.25,0,0,0,6.39.15c7.31-8.46,22.69-28.49,22.69-40.59V80.68C271.76,66.08,260.28,54.24,246.12,54.24Zm0,44a17,17,0,1,1,17-17A17,17,0,0,1,246.12,98.22Z" style="fill:#455a64"></path></g></g><g id="freepik--character-2--inject-8"><g id="freepik--Chartacter--inject-8"><g id="freepik--Backpack--inject-8"><path d="M171.09,229.72c1.18,1.74,4.07-.24,9.19-2.53s1.86-25.46,1.86-25.46-8.34.47-9.44,8.33S171.09,229.72,171.09,229.72Z" style="fill:#D38F1D"></path><path d="M171.09,229.72c1.18,1.74,4.07-.24,9.19-2.53s1.86-25.46,1.86-25.46-8.34.47-9.44,8.33S171.09,229.72,171.09,229.72Z" style="opacity:0.25"></path><path d="M212.41,186.74c4.91-.33,16.08,4.8,18,8.54,2,3.93,11.3,58,7.36,63.3-4.93,6.65-30.19,20.47-41.55,20.68-9.38.18-18.72-7.95-20.28-10.38-2.54-4-2.46-60.13.27-65C180.64,196,206.14,187.17,212.41,186.74Z" style="fill:#D38F1D"></path><path d="M212.41,186.74c4.91-.33,16.08,4.8,18,8.54,2,3.93,11.3,58,7.36,63.3-4.93,6.65-30.19,20.47-41.55,20.68-9.38.18-18.72-7.95-20.28-10.38-2.54-4-2.46-60.13.27-65C180.64,196,206.14,187.17,212.41,186.74Z" style="fill:#fff;opacity:0.1"></path><path d="M212.41,186.74c4.91-.33,16.08,4.8,18,8.54,2,3.93,11.3,58,7.36,63.3-4.93,6.65-30.19,20.47-41.55,20.68-9.38.18-18.72-7.95-20.28-10.38-2.54-4-2.46-60.13.27-65C180.64,196,206.14,187.17,212.41,186.74Z" style="opacity:0.2"></path><path d="M174.13,232.46c0-2.35.07-4.67.13-6.92,0-.9.05-1.79.08-2.66,0-1.74.12-3.42.2-5,0-.8.08-1.57.12-2.32.07-1.13.14-2.2.22-3.21s.16-1.94.25-2.8l.09-.84a16.73,16.73,0,0,1,1-4.8c.13-.23.28-.45.43-.68l.17-.22.35-.46.23-.27c.12-.15.26-.29.39-.44l.26-.27c.2-.21.41-.42.64-.63l.45-.4.3-.27.53-.44.27-.22.61-.48c4.51,1.61,8.77,3.15,8.9,3.22.28.17,4.91,2.64,5,9.52l1.39,27.82.14,2.64c.12,3.69,5,37.56-5.49,36.14l-.42-.05c-7.13-2.13-13.23-7.6-14.46-9.52a6,6,0,0,1-.54-1.84c-.07-.36-.13-.76-.2-1.21q0-.33-.09-.69c-.09-.72-.17-1.53-.24-2.41,0-.3-.06-.6-.08-.91-.37-4.67-.59-11.13-.66-18.07,0-1.38,0-2.79,0-4.2v-2.84c0-.47,0-.94,0-1.42C174.11,234.35,174.12,233.4,174.13,232.46Z" style="fill:#D38F1D"></path><path d="M175.44,207a11.3,11.3,0,0,1,.77-3.13c4.43-7.89,29.93-16.72,36.2-17.15,4.91-.33,16.08,4.8,18,8.54a30.55,30.55,0,0,1,1.37,4.94c-9.58,5.72-34.39,18.6-37.05,17.78-3.26-1-19-10.53-19.29-11Z" style="opacity:0.4"></path><path d="M172.64,243.61c.28-.17,4.44-3.6,4.93-3.88.86-.48,14.05,7.58,15.3,9,.87,1,.31,16.84-.14,18-.16.42-4.77,3.46-4.93,3.88-.45,1.15-14.36-7-15.3-9.12S171.37,244.32,172.64,243.61Z" style="fill:#D38F1D"></path><path d="M172.64,243.61c.28-.17,4.44-3.6,4.93-3.88.86-.48,14.05,7.58,15.3,9,.87,1,.31,16.84-.14,18-.16.42-4.77,3.46-4.93,3.88-.45,1.15-14.36-7-15.3-9.12S171.37,244.32,172.64,243.61Z" style="opacity:0.18"></path><path d="M187.93,252.59c.87,1,.32,16.85-.13,18s-14.36-7-15.3-9.12-1.13-17.15.14-17.86C173.5,243.12,186.68,251.18,187.93,252.59Z" style="fill:#D38F1D"></path><path d="M177.57,239.74c-.49.27-4.64,3.71-4.93,3.86.86-.48,14,7.58,15.29,9l4.94-3.87C191.62,247.3,178.43,239.24,177.57,239.74Z" style="opacity:0.4"></path><path d="M187.93,252.59c.87,1,.32,16.85-.13,18s-14.36-7-15.3-9.12-1.13-17.15.14-17.86C173.5,243.12,186.68,251.18,187.93,252.59Z" style="opacity:0.30000000000000004"></path><path d="M192.87,248.72c-1-.57-3.76,1.07-4.94,2.18s-2.29,6.13-5.43,7-7.8-3.06-8.86-5.71-2.43-8.24-1-10.33,4.08-3.3,6.38-2.19S192.48,246.26,192.87,248.72Z" style="fill:#D38F1D"></path><path d="M192.87,248.72c-1-.57-3.76,1.07-4.94,2.18s-2.29,6.13-5.43,7-7.8-3.06-8.86-5.71-2.43-8.24-1-10.33,4.08-3.3,6.38-2.19S192.48,246.26,192.87,248.72Z" style="opacity:0.1"></path><path d="M178.68,251.55a2.36,2.36,0,0,1,1.2,2.14,1,1,0,0,1-1.41.9,2.29,2.29,0,0,1-1.2-2.14C177.33,251.6,178,251.2,178.68,251.55Z" style="fill:#37474f"></path><path d="M195.09,218s-2.05-6.46-10.16-10.69-8.29-2.77-10.63,1.77c-2.1,4.08-2.35,19-2.39,20.4s-1.76,1.23-1.9-7.86.74-17.84,9-23.61c11.09-7.75,28.54-13.26,36.94-11.82s16,5.28,15.85,14C231.78,200.22,221.63,215.11,195.09,218Z" style="fill:#D38F1D"></path><path d="M195.09,218s-2.05-6.46-10.16-10.69-8.29-2.77-10.63,1.77c-2.1,4.08-2.35,19-2.39,20.4s-1.76,1.23-1.9-7.86.74-17.84,9-23.61c11.09-7.75,28.54-13.26,36.94-11.82s16,5.28,15.85,14C231.78,200.22,221.63,215.11,195.09,218Z" style="opacity:0.1"></path><path d="M217.86,197.25s3.17,1.71,3.41,3.69,1.4,6.71.64,8-3.26,1.6-3.62.69-.9-6.59-1.5-8-3-3.24-3-3.24Z" style="fill:#D38F1D"></path><path d="M199.05,202.44s3.13,1.46,3.38,3.44,1.43,6.52.66,7.85-3.25,1.6-3.61.69-.91-6.59-1.5-8-3.07-2.89-3.07-2.89Z" style="fill:#D38F1D"></path><g style="opacity:0.30000000000000004"><path d="M217.86,197.25s3.17,1.71,3.41,3.69,1.4,6.71.64,8-3.26,1.6-3.62.69-.9-6.59-1.5-8-3-3.24-3-3.24Z" style="fill:#fff"></path><path d="M199.05,202.44s3.13,1.46,3.38,3.44,1.43,6.52.66,7.85-3.25,1.6-3.61.69-.91-6.59-1.5-8-3.07-2.89-3.07-2.89Z" style="fill:#fff"></path></g><path d="M221.46,169.88h0c1.8-.55,4,.08,6.07,2,4.21,3.91,6.59,11.62,5.31,17.22-.67,2.94-2.22,4.7-4.15,5.15h0l-49.78,13.64-7.62-24.29,14-1.76,5.15-1.54,17.3-5,2.38-.79Z" style="fill:#455a64"></path><path d="M177.53,185.61c4.21,3.9,6.59,11.61,5.31,17.21s-5.73,7-9.94,3.06-6.58-11.61-5.3-17.21S173.32,181.7,177.53,185.61Z" style="fill:#37474f"></path><path d="M209.14,174.87s10.22,6.33,8.72,22.38l-4.1,1.13s1.6-15.47-9.63-22Z" style="fill:#D38F1D"></path><path d="M190.4,180.34s10.25,6,8.75,22L195,203.51s1.45-15.1-9.78-21.63Z" style="fill:#D38F1D"></path><g style="opacity:0.15"><path d="M216.93,186.26a29,29,0,0,1,.93,11l-4.1,1.13a30.44,30.44,0,0,0-1.15-10.69Z"></path><path d="M198.46,192.35a28.92,28.92,0,0,1,.69,10L195,203.51a29.59,29.59,0,0,0-1-9.7Z"></path></g><path d="M170.88,191c1.68-1,3.41.46,4.19,1.9a7.68,7.68,0,0,1,.7,4,2.86,2.86,0,0,1-.38,1.65c-.3.43-.81.62-1.18.16-.14-.18,0-.7.3-.64s.17.15.24.05.06-.4.07-.53a7.63,7.63,0,0,0-.16-1.58,6.75,6.75,0,0,0-.65-2.34,4.62,4.62,0,0,0-1.43-1.67c-.52-.34-1.32-.49-1.54.25-.33,1.16.32,2.78.66,3.89a13.81,13.81,0,0,0,2.22,4.6c.59.74,2.23,2.38,3.31,1.77s1-2.64,1.08-3.59a13.6,13.6,0,0,0-.7-4.6,14.11,14.11,0,0,0-2.32-4.75,4,4,0,0,0-1.68-1.18c-.52-.2-1.74-.62-2,.12-.06.18-.43.53-.6.26-.59-.95.34-1.72,1.26-1.92a4.82,4.82,0,0,1,4.07,1.11c1.62,1.34,2.49,3.73,3.16,5.66a14.63,14.63,0,0,1,.79,6.46c-.19,1.7-.8,3.84-2.74,4.22s-4.2-1.16-5.32-2.79a15.85,15.85,0,0,1-2.36-6.31C169.66,193.8,169.5,191.81,170.88,191Z" style="fill:#263238"></path></g><g id="freepik--Bottom--inject-8"><path d="M243,398.72l-1.55-15.05,18.14-1.9s-.75,11.88-.67,17.33c.05,2.57,1.8,7.4,1.8,7.4s-7.16,3.79-10.87,2.22-6.14-7.59-6-8.69Z" style="fill:#ffbda7"></path><path d="M281.38,424.81c.26,0,.37,2.41-1.07,3.54a17.67,17.67,0,0,1-12.94,2.6c-6.1-1.12-9.33-3.22-11.68-5.42s-5.64-5.32-8.38-6.09a19.6,19.6,0,0,1-6.72-3.85c-.79-.85-.49-4.43-.49-4.43Z" style="fill:#263238"></path><path d="M242.82,397.28s-.34.16-.54,1c-.24,1-.59,3.85-1.08,5.45a29.5,29.5,0,0,0-1,8.69c.25,1.85,5,4.32,7.67,5.49a34.5,34.5,0,0,1,8.42,6c2.76,2.56,8.7,5.38,12.7,5.55,4.74.21,10.15-1.07,11.48-3.22,1.65-2.68,2.92-5.81-3.93-9.47-1.3-.69-5.82-3.73-7.36-4.82-4.17-3-7.06-5.64-8.8-10.59a2.72,2.72,0,0,0-.93-1.54,2.24,2.24,0,0,0-1.36-.19c-1.18.1-5.87.52-7,1s-2.32.87-2.37,2.09a4.48,4.48,0,0,0,.2,1.26c.08.25.12.59-.1.72s-.47,0-.65-.22a18.24,18.24,0,0,1-1.77-2.39,20.07,20.07,0,0,0-1.7-2.17c-.36-.32-.84-.5-1.16-.85A2.81,2.81,0,0,1,242.82,397.28Z" style="fill:#455a64"></path><path d="M256.24,423.9c-1.17-1.08-2.42-2.13-3.68-3.08h0s8,5.5,11.45,3.37c2.22-1.38,1.29-3.23,1.27-3.81s7.77-4.26,9.87-4.41h0a14.23,14.23,0,0,0,1.34.8c5.37,2.5,5.95,5.4,4.85,8.95-1.33,2.16-6.2,4.21-12.32,3.9C265,429.4,259,426.46,256.24,423.9Z" style="fill:#37474f"></path><path d="M264.79,418.65c4.27,2,2.37,2.73,1.14,2.84s-8.36-4.61-12.66-8.43c-4.48-4-7.86-9.19-9.53-10.66-.62-.54-1.28-1.21-1.87-1.83.16-1,.3-1.85.41-2.31.2-.82.54-1,.54-1a5.39,5.39,0,0,0,.7,1.75c.32.35.8.53,1.16.85a20.07,20.07,0,0,1,1.7,2.17,17.45,17.45,0,0,0,1.78,2.39C251.72,409.54,260.51,416.66,264.79,418.65Z" style="fill:#37474f"></path><path d="M265.65,420.82a.4.4,0,0,1-.27-.11.44.44,0,0,1,0-.62c1.31-1.46,7.33-4.78,10.53-4.26a.43.43,0,0,1,.36.5.43.43,0,0,1-.5.36c-3-.48-8.71,2.83-9.75,4A.42.42,0,0,1,265.65,420.82Z" style="fill:#263238"></path><path d="M262,418.26a.5.5,0,0,1-.27-.12.45.45,0,0,1,0-.62c1.3-1.46,7.33-4.78,10.52-4.26a.43.43,0,0,1,.36.5.44.44,0,0,1-.49.37c-3-.48-8.72,2.82-9.75,4A.47.47,0,0,1,262,418.26Z" style="fill:#263238"></path><path d="M258.27,415.81a.4.4,0,0,1-.27-.11.44.44,0,0,1,0-.62c1.31-1.46,7.34-4.79,10.53-4.26a.43.43,0,0,1,.36.5.43.43,0,0,1-.5.36c-3-.48-8.71,2.83-9.75,4A.41.41,0,0,1,258.27,415.81Z" style="fill:#263238"></path><path d="M254.87,413.07a.5.5,0,0,1-.27-.12.44.44,0,0,1,0-.61c1.31-1.47,7.35-4.79,10.53-4.27a.43.43,0,0,1,.36.5.44.44,0,0,1-.5.37c-3-.48-8.71,2.82-9.74,4A.47.47,0,0,1,254.87,413.07Z" style="fill:#263238"></path><path d="M251.55,410.32a.4.4,0,0,1-.27-.11.44.44,0,0,1,0-.61c1.81-2.08,8.08-4.79,11.27-4.27a.43.43,0,0,1,.36.5.43.43,0,0,1-.5.36c-2.87-.47-8.88,2.14-10.48,4A.4.4,0,0,1,251.55,410.32Z" style="fill:#263238"></path><path d="M214.53,404.63l4.11-18.5-17.75-2.91-.34,18.27s-1.37,4.91-.37,6.6,11.66,3.51,12.64,2.39S214.53,404.63,214.53,404.63Z" style="fill:#ffbda7"></path><path d="M212.67,433.79c-.48,4.15-1.33,6.83-3.09,9.07s-4.87,2.61-7.94,1.49-7-3.56-7.68-7.28a20.82,20.82,0,0,1,.5-10Z" style="fill:#263238"></path><path d="M200.55,401.49c-1.28-.07-.94,3.2-1.57,8.79-.67,6.06-3.34,10.79-4.3,15.64-1.1,5.55-.9,8.11,1.1,11.81s9.52,8,13.56,3.64c3.29-3.59,3.64-8,3.65-13.67a128.49,128.49,0,0,1,.44-14.39c.46-4.2,2.19-8.07,1.1-8.68-.12.61-1.23,4.85-1.95,4.78a8.43,8.43,0,0,1,.07-1.59,1.86,1.86,0,0,0-.28-1.41,6,6,0,0,0-2.07-1.09c-1.25-.39-3.49-.88-4.76-1.15q-1-.21-1.92-.33a5.3,5.3,0,0,0-1.64,0,1,1,0,0,0-.72.48,1.51,1.51,0,0,0-.1.64,4.27,4.27,0,0,1-.22,1.13c-.06.16-.19.35-.37.29a.37.37,0,0,1-.2-.37C200.4,405.34,200.51,401.85,200.55,401.49Z" style="fill:#455a64"></path><path d="M195.05,424.35c-.16.8-1.2,6.1.37,7.28s2.86-2.84,2.86-2.84,4.16-.61,10,2.54c-.35.83.43,3.84,2.09,3.44s2.61-6.5,2.63-6.58c0,5.44-.45,9.7-3.65,13.18-4,4.4-11.56.06-13.56-3.64s-2.2-6.26-1.1-11.81C194.79,425.37,194.91,424.85,195.05,424.35Z" style="fill:#37474f"></path><path d="M198.73,429.21c-.13,2-2.31,1.07-2.26-1.83s1.55-9.92,2.13-14.65c.39-6.81.67-11.31,2-11.24,0,.07,0,.14,0,.21s-.15,3.88-.17,4.32c-.24,4.16-.32,12.24-.9,16A60.06,60.06,0,0,0,198.73,429.21Z" style="fill:#37474f"></path><path d="M207.59,431.18a59.89,59.89,0,0,0,1.58-7c.64-3.72,2.82-11.16,3.91-15.16.35-.66,1.45-4.39,1.45-4.39.89.26,0,3.82-.43,5.49s-.94,3.46-1.47,5.85c-1.35,4.72-1.49,11.8-2.36,14.52S207.06,433.13,207.59,431.18Z" style="fill:#37474f"></path><path d="M208.39,431.51a.61.61,0,0,1-.17-.07,17.21,17.21,0,0,0-9.84-2.21.54.54,0,0,1-.56-.39.39.39,0,0,1,.36-.48,18,18,0,0,1,10.52,2.37.43.43,0,0,1,.17.61A.45.45,0,0,1,208.39,431.51Z" style="fill:#263238"></path><path d="M209.69,427.22l-.16-.06a21.29,21.29,0,0,0-11-2.48.54.54,0,0,1-.56-.4.4.4,0,0,1,.39-.47A22.08,22.08,0,0,1,210,426.43a.43.43,0,0,1,.2.6A.46.46,0,0,1,209.69,427.22Z" style="fill:#263238"></path><path d="M199,420.51a.54.54,0,0,1-.39-.34.4.4,0,0,1,.33-.51c5.84-1,11.39,2.37,11.63,2.51a.45.45,0,0,1,.17.61.49.49,0,0,1-.66.1c-.05,0-5.44-3.33-10.88-2.36A.46.46,0,0,1,199,420.51Z" style="fill:#263238"></path><path d="M199.57,416.59a.52.52,0,0,1-.38-.34.39.39,0,0,1,.31-.52,16.68,16.68,0,0,1,11.86,2.52.42.42,0,0,1,.13.61.48.48,0,0,1-.66.06,15.92,15.92,0,0,0-11.05-2.33A.74.74,0,0,1,199.57,416.59Z" style="fill:#263238"></path><path d="M200.19,412.18a.51.51,0,0,1-.38-.33.39.39,0,0,1,.3-.52c6-1.26,11.71,2.48,11.94,2.64a.42.42,0,0,1,.15.61.48.48,0,0,1-.66.08S206,411,200.41,412.18Z" style="fill:#263238"></path><path d="M205.57,261.9c-1.71,16.46-2.82,25.6-2.36,47.15.18,8.17,1,17.62.93,25.79A49.41,49.41,0,0,1,204,342c-.69,4.24-1.5,8.52-2.33,12.76a74.77,74.77,0,0,0-1.38,9.42c-.31,4.76.17,9.6-.8,14.26a45.91,45.91,0,0,0-1.09,5.26,8.27,8.27,0,0,0,.22,2.89c.27.94,1,1.57,1.32,2.42.43,1.24,0,3.11,0,4.44,0,0,10.66,4.72,17.3,2.33.3-1.19.39-3.15,1.05-4.13.47-.7,1.58-1.1,2.17-1.79a6.26,6.26,0,0,0,1.31-2.53,25.08,25.08,0,0,0,.35-4c.27-3.14,1.68-6.05,2.67-9,2.68-8.07,2.19-16.64,3.83-24.9,2.23-11.15,3.29-18.2,4.54-26.14s4.57,15.81,4.57,15.82a26.09,26.09,0,0,1-.19,4.32c-.1,2.82,0,5.59-.38,8.38a60.08,60.08,0,0,0,.56,18.59,33.82,33.82,0,0,1,1,8.72c-.1,1.92-.42,3.63.32,5.4.54,1.28,1.31,1.6,2,2.78.28.49.3,4.35.6,4.54,0,0,11,5.76,17.87,0,.09-1.12,0-3.35.45-4.34a6.15,6.15,0,0,0,2-4.23c.13-1.82-.42-3.14-.44-5a57.39,57.39,0,0,1,.59-6.66,77.7,77.7,0,0,0,.33-9.53c-.05-2.76-.52-5.69-.1-8.4a116.57,116.57,0,0,0,.89-13.86c.49-18,.57-54.56-1.42-77.77Z" style="fill:#455a64"></path><path d="M215,283.55c-.1,18.77-7.43,23.72-10.87,25.11C204.09,308.66,211.69,300.35,215,283.55Z" style="fill:#37474f"></path><path d="M238,291.21l-5.25,35.39c.18-1.09.35-2.19.52-3.3,1.26-7.94,4.57,15.82,4.57,15.82l-.87-15.52a65.23,65.23,0,0,1,.94-14.5l3.1-15.2a17.66,17.66,0,0,0,10.69-8.36C247.52,289.61,238,291.21,238,291.21Z" style="fill:#263238"></path><path d="M199.82,394.13c3,2.41,11.65,4.49,17.6,2.3l1.21-5.15c-4.49,1.54-13.72.52-18.69-2.65Z" style="fill:#263238"></path><path d="M241.65,392.44c2,2.11,12.39,3.5,17.9.2l.43-5.17c-4.18,2.37-14.84,2.31-18.92-.16Z" style="fill:#263238"></path><path d="M203.33,312.69s.48,23.59.54,25.27,12.27,5.06,12.59,4c.53-1.78.41-5.75,1.53-24.89C207.86,315.67,203.33,312.69,203.33,312.69Z" style="fill:#37474f"></path><path d="M216.06,323.64a3.71,3.71,0,0,0-1.15-.1c-.45,0-.9,0-1.34-.08a20.69,20.69,0,0,1-2.82-.45,22.49,22.49,0,0,1-3.08-1c-.82-.32-1.59-.76-2.41-1.08-.08,0-.09.12,0,.16a11.36,11.36,0,0,0,2.58,1.36,18,18,0,0,0,2.54.85,20.76,20.76,0,0,0,2.81.53c.47,0,.95.09,1.42.11a3,3,0,0,0,1.5-.11C216.13,323.82,216.14,323.66,216.06,323.64Z" style="fill:#263238"></path><path d="M210.75,320.39c-.11-.24-.2-.38-.47-.42a.9.9,0,0,0-.61.16.79.79,0,0,0-.31.53.9.9,0,0,0,.44.87.81.81,0,0,0,.87,0,.63.63,0,0,0,.22-.52A1.36,1.36,0,0,0,210.75,320.39Zm-.23.71a.49.49,0,0,1-.62.11c-.31-.18-.24-.8.14-.84a.41.41,0,0,1,.34.09A.53.53,0,0,1,210.52,321.1Z" style="fill:#263238"></path></g><g id="freepik--Top--inject-8"><path d="M320.79,207.28c1.7-.76,6.54-1.39,8.66-2.07a18.4,18.4,0,0,0,6.62-3.27,2.77,2.77,0,0,0,1.21-1.94c0-.41-.14-.8-.13-1.2a13.76,13.76,0,0,0,.22-2c-.12-.86-1.18-1.53-1.26-2.39,0-.38.39-1.47.22-1.81-.34-.73-.72-.88-1.12-1.41-.21-.28-.8-.76-.5-1.16s1.45-1.1,3.72-3.2,4.34-3.81,3.71-5.09c-.92-1.87-4.81.77-8.29,3.11-3.21,2.16-7.12,5-7.9,4.64-1.12-.44.69-3.88,0-6.17s-2.41-2.36-2.95-.42c-.46,1.66-1.71,4-2.85,6.72-.8,1.91-1.93,4.17-3.74,5.21-1.46.86-23.37,12-23.37,12s-13.51-3.65-21.46-6.35A149,149,0,0,0,253,195.33l3.76,20.94s9.67,2.55,23.36,5.51c13.51,2.92,13.59,4.06,18.73,1C304.8,219.21,319.1,208.05,320.79,207.28Z" style="fill:#ffbda7"></path><path d="M252.45,194.12c3.73.4,8.17,1.36,17.05,4.26s23.31,7.45,23.31,7.45l18.46-8.58a9.2,9.2,0,0,0,1.41,7.36,11.71,11.71,0,0,0,6.05,4.54s-17.25,13-21.69,14.93-5.55.81-10.49-.2-30.61-7.16-30.61-7.16Z" style="fill:#37474f"></path><path d="M331.34,190.85c-1.89,1.65-4.39,2.93-4.32,4.38a2,2,0,0,0,2.47,1.72,2,2,0,0,0-.36,1.92,1.82,1.82,0,0,0,1.54,1.11,1.88,1.88,0,0,0,1.21,2.46c-.78.15-2.36-.12-2.07-1.67,0,0-2.07-.85-1.53-2.63,0,0-.5,2-3.56,3a7,7,0,0,0,2.77-3.69,2.88,2.88,0,0,1-1.28-2.64C326.45,193.08,331.34,190.85,331.34,190.85Z" style="fill:#f0997a"></path><g id="freepik--Chest--inject-8"><path id="freepik--chest--inject-8" d="M225.6,192.21s-12.39,1.72-15.27,2.77c0,0-11.88,8-9.44,32.05.34,3.39,3.57,12.53,3.55,20.71,0,5.82-.88,19-1.12,23.07a82.32,82.32,0,0,0,40.52,6c17.64-2,19.47-9.81,19.47-9.81s1.41-30.39.49-43.84c-1.2-17.66-8.83-26.57-15.93-30.1l-7.12-.74Z" style="fill:#f0f0f0"></path><path d="M257.05,211.09a63.74,63.74,0,0,1,.3,11.64c-8.94,2.45-19.76,4-30,2.81.27-4.34.22-8,.1-12.1A93.89,93.89,0,0,0,257.05,211.09Z" style="fill:#e0e0e0"></path></g><path d="M247.87,193c10.74,7.35,15.44,23.54,16.08,32.91.91-22.92-10.16-31.89-10.16-31.89Z" style="fill:#D38F1D"></path><g id="freepik--Head--inject-8"><path d="M222.43,155.09s-2.91.39-4.66,4.1c-.89,1.86-1.48,6.42,1.55,15.7A37.11,37.11,0,0,0,224.4,185a4.69,4.69,0,0,0,2.86,2l-.51-7.24-.44-6.26s4.12-1.36,4.95-7.16c.66-4.65-1.25-6.45-1.25-6.45Z" style="fill:#263238"></path><path d="M218,158.57c-1.14-7.17,12.38-17.26,20.59-12,2.83-3.95,9.54-2.18,10.17,1.91,2.41-1.18,7,3.86,5.89,6.9,2.21,6.73-1.13,10.12-4.34,10-7.85-.22-16.25-.75-24.18-.4C226.1,165,218,158.59,218,158.57Z" style="fill:#263238"></path><path d="M251.14,155.07c1.64,1.55,3.65,5.52,4.06,18.39.27,8.75-1.88,12.6-5,14.12-2,1-3.72,1.33-7.36,1.3l0,5.24c7.35,7.25-13.91,9.28-18.8-.15l.3-14.35c-.56,1.07-3.3,1.74-5.3-.33-3.18-3.27-2.52-7.95-.15-9.7s5.89-1.35,7.16,2.14c2.71,1,4.73-2.85,4-13.4C239.05,158.13,244.18,151.75,251.14,155.07Z" style="fill:#ffbda7"></path><path d="M242.85,188.88c-8.89-.52-14-4.43-15-7.8,0,0-.43,5.07,5.73,8a24.78,24.78,0,0,0,9.22,2.19Z" style="fill:#f0997a"></path><path d="M245.82,178.15,240,176.32a3,3,0,0,0,1.89,3.89A3.21,3.21,0,0,0,245.82,178.15Z" style="fill:#b16668"></path><path d="M243.19,180.31a3,3,0,0,1-1.32-.1,2.94,2.94,0,0,1-2-2.41A3.52,3.52,0,0,1,243.19,180.31Z" style="fill:#f28f8f"></path><path d="M236.27,167.15a1.66,1.66,0,1,0,1.51-1.78A1.67,1.67,0,0,0,236.27,167.15Z" style="fill:#263238"></path><path d="M248.09,166.26a1.66,1.66,0,1,0,1.51-1.78A1.65,1.65,0,0,0,248.09,166.26Z" style="fill:#263238"></path><polygon points="242.57 163.7 244.3 174.41 249.67 171.89 242.57 163.7" style="fill:#f0997a"></polygon><path d="M251.93,162.67l-3.91-1a1.93,1.93,0,0,1,2.38-1.48A2.09,2.09,0,0,1,251.93,162.67Z" style="fill:#263238"></path><path d="M234.72,164l3.6-1.93a2,2,0,0,0-2.71-.87A2.13,2.13,0,0,0,234.72,164Z" style="fill:#263238"></path><g id="freepik--Cap--inject-8"><path d="M253.11,155.16c-16.81-.15-23.91,6.92-23.91,6.92a21.26,21.26,0,0,0-5.95,6.7,5.06,5.06,0,0,0-5.29,1.73,13,13,0,0,1-1.08-3.48c-1.12-5.62-1.17-17.26,11.77-21.61,11.88-4,20.25-2,22.79,4.55C252,151.38,253.15,155.17,253.11,155.16Z" style="fill:#37474f"></path><path d="M228.86,160.5a22.94,22.94,0,0,1,7.52-9.26c3.65-2.79,11.67-4.06,15.29-4.52,6.32-.8,8,.41,8.21,1.39,0,.23.27,1.3.32,1.54a1,1,0,0,1-.05.66c-.76,1.66-5.53,5-5.53,5-8.18-1.19-17.86,1.58-25.42,6.74Z" style="fill:#D38F1D"></path><path d="M229.2,162.08c7.56-5.16,17.43-7.59,25.42-6.74,0,0,4.77-3.37,5.53-5,.4-.92-.32-3-8.14-2-3.62.45-11.64,1.72-15.29,4.51A23,23,0,0,0,229.2,162.08Z" style="fill:#263238"></path></g></g><path d="M218.26,193.33s5.68,8.17,5.34,22.73c-.78,33.18-20.82,44.37-20.82,44.37a116.63,116.63,0,0,1,1-12.11s9.2-10.19,10.79-28.94c1.15-13.42-1.3-20.92-4.26-24.4C210.33,195,212.73,193.79,218.26,193.33Z" style="fill:#D38F1D"></path><polygon points="243.77 218.28 266.2 224.5 281.26 212.4 299.79 217.85 314.28 205.16 287.2 266.49 278.75 273.25 263.89 272 249.35 282.88 233.49 278.69 243.77 218.28" style="fill:#D38F1D"></polygon><polygon points="243.77 218.28 266.2 224.5 281.26 212.4 299.79 217.85 314.28 205.16 287.2 266.49 278.75 273.25 263.89 272 249.35 282.88 233.49 278.69 243.77 218.28" style="opacity:0.15"></polygon><path d="M250.27,280.06h-.1l-13.26-3.35a.48.48,0,0,1-.36-.55l9.56-53.65a.47.47,0,0,1,.22-.33.46.46,0,0,1,.38,0l18.39,5.29,14.66-11.26a.48.48,0,0,1,.42-.08l18.19,4.73,10.36-8a.49.49,0,0,1,.59,0,.48.48,0,0,1,.15.58l-23,52.43a.49.49,0,0,1-.14.18l-6.3,5a.55.55,0,0,1-.35.1l-14.84-1.48L250.57,280A.55.55,0,0,1,250.27,280.06Zm-12.69-4.18,12.61,3.18,14.24-10.27a.55.55,0,0,1,.33-.09l14.83,1.47,6.06-4.84,22.18-50.6-9.06,7a.48.48,0,0,1-.42.08l-18.19-4.73L265.5,228.32a.5.5,0,0,1-.43.08L247,223.19Z" style="fill:#D38F1D"></path><polygon points="281.26 212.4 263.89 272 249.35 282.88 266.2 224.5 281.26 212.4" style="opacity:0.25"></polygon><polygon points="299.79 217.85 314.28 205.16 287.2 266.49 278.75 273.25 299.79 217.85" style="opacity:0.25"></polygon><path d="M254.72,257.39a.75.75,0,0,1-.07-.12,4.5,4.5,0,0,1-.16-.48,2,2,0,0,0-1.34-1.14,5.74,5.74,0,0,0-1.8-.17c-2.62,0-5.15.73-7.79.55a10.94,10.94,0,0,1-4.21-1.19c-.54-.28-1.65-.86-1.51-1.64,0,0-2.39,13.94-2.39,13.94a22.75,22.75,0,0,0,3.61.42c.69,0,1.37,0,2.05,0a20,20,0,0,0,8.32-1.69,6.57,6.57,0,0,0,2.41-1.76c.5-.63,1.21-.85,1.74-1.45.38-.44.37-1.1.67-1.6.41-.69,1.38-1,1.5-1.84a1.77,1.77,0,0,0-.66-1.44A2.86,2.86,0,0,1,254.72,257.39Z" style="fill:#ffbda7"></path><path d="M210.35,195.33c-8.18,2.47-10.21,2.86-13,12.37-1.91,6.59-5.45,19.16-7.7,29-1.92,8.4-2.36,11.57,5.1,15.87,7.85,4.52,23.34,8.68,28.63,10.87a46.8,46.8,0,0,0,12,3.66L237.36,256l1-6.08c-3.68,0-6.66,1.09-9.89.76-4.05-.41-22.81-12.07-22.81-12.07l7.94-19S217.47,209.4,210.35,195.33Z" style="fill:#ffbda7"></path><path d="M210.33,195c-9.42,2.07-10.55,5.19-12.25,9.28s-4.49,14.66-7.56,27.64-4,14.28-1.45,17.56,18.56,8.62,18.56,8.62a22.1,22.1,0,0,1,2.67-9.89c2.66-4.47,6.47-3.06,6.47-3.06L207.4,239l7.19-19.65S218.84,204.7,210.33,195Z" style="fill:#37474f"></path></g></g></g><g id="freepik--character-1--inject-8"><g id="freepik--Character--inject-8"><g id="freepik--backpack--inject-8"><path d="M76.51,244.85c.59.27,6.67-1.15,12.38-3.36V219.88s-7.43.74-9.8,9.22C75,243.7,76.51,244.85,76.51,244.85Z" style="fill:#263238"></path><path d="M121.2,209.81c5.38-.09,11.67,2.58,13.56,6.76.32.71,2.58,6.22,2.58,6.22,3,14.59,8.48,52.18,4.65,56.84-5.75,7-34.05,20.65-46.46,20.26-10.23-.32-20.1-9.63-21.52-12.44-4.68-9.22,7.58-60.6,10.83-65.76C90.1,213.33,114.35,209.93,121.2,209.81Z" style="fill:#D38F1D"></path><path d="M142,279.63c-5.75,7-34.05,20.65-46.46,20.26a22.36,22.36,0,0,1-8-1.94c2.89,1.36,6.28,0,7.22-3.78s2.51-33.86,2.51-59.64l40.13-11.74C140.37,237.38,145.82,275,142,279.63Z" style="opacity:0.18"></path><path d="M83.55,224.44a13.28,13.28,0,0,1,1.29-3.22c5.26-8.36,29.51-11.77,36.36-11.88,5.38-.09,11.67,2.57,13.56,6.76.31.68,2.58,6.21,2.58,6.21-10.75,5.71-37.64,11.51-40.5,10.47C93.34,231.51,83.55,224.44,83.55,224.44Z" style="opacity:0.5"></path><path d="M76.2,264.17c.26-.12,4.09-2.8,4.53-3,.78-.36,11.61,7.52,12.59,8.82.68.91-1.19,19.6-1.66,20.56-.16.35-4.36,2.66-4.53,3-.46,1-11.91-7.06-12.58-8.93S75.06,264.7,76.2,264.17Z" style="fill:#D38F1D"></path><path d="M76.2,264.17c.26-.12,4.09-2.8,4.53-3,.78-.36,11.61,7.52,12.59,8.82.68.91-1.19,19.6-1.66,20.56-.16.35-4.36,2.66-4.53,3-.46,1-11.91-7.06-12.58-8.93S75.06,264.7,76.2,264.17Z" style="opacity:0.18"></path><path d="M88.79,273c.68.91-1.19,19.59-1.66,20.56s-11.91-7.06-12.58-8.93.51-19.92,1.65-20.45C77,263.81,87.81,271.68,88.79,273Z" style="fill:#D38F1D"></path><path d="M80.73,261.17c-.44.2-4.27,2.88-4.53,3,.78-.36,11.61,7.51,12.59,8.81l4.53-3C92.34,268.67,81.51,260.8,80.73,261.17Z" style="opacity:0.4"></path><path d="M88.79,273c.68.91-1.19,19.59-1.66,20.56s-11.91-7.06-12.58-8.93.51-19.92,1.65-20.45C77,263.81,87.81,271.68,88.79,273Z" style="opacity:0.30000000000000004"></path><path d="M93.32,270c-.8-.56-3.32.67-4.42,1.54s-2.4,5.14-5.17,5.72-6.53-3.19-7.26-5.54-1.53-7.29-.14-9,3.75-2.57,5.66-1.45S93.16,267.83,93.32,270Z" style="fill:#D38F1D"></path><path d="M93.32,270c-.8-.56-3.32.67-4.42,1.54s-2.4,5.14-5.17,5.72-6.53-3.19-7.26-5.54-1.53-7.29-.14-9,3.75-2.57,5.66-1.45S93.16,267.83,93.32,270Z" style="opacity:0.1"></path><path d="M81.25,272.12a2.05,2.05,0,0,1,.89,1.93.82.82,0,0,1-1.28.68A2,2,0,0,1,80,272.8.81.81,0,0,1,81.25,272.12Z" style="fill:#37474f"></path><path d="M97.21,234.05s-3.78-2.59-8.37-5.24-8-3.78-9.68,1.55a82,82,0,0,0-2.65,14.49c-.88-.43-.78-2-.17-8.8.89-9.89-.37-14.3,9.87-18.26,15.86-6.14,29.19-11,38.27-8.93s11.21,7.12,12.86,13.45C137.34,222.31,126.31,232.33,97.21,234.05Z" style="fill:#D38F1D"></path><path d="M97.21,234.05s-3.78-2.59-8.37-5.24-8-3.78-9.68,1.55a82,82,0,0,0-2.65,14.49c-.88-.43-.78-2-.17-8.8.89-9.89-.37-14.3,9.87-18.26,15.86-6.14,29.19-11,38.27-8.93s11.21,7.12,12.86,13.45C137.34,222.31,126.31,232.33,97.21,234.05Z" style="fill:#fff;opacity:0.30000000000000004"></path><path d="M134.83,174.42h0c1.95-.91,4.3-.47,6.59,1.54,4.57,4,7.14,12.78,5.76,19.58-.73,3.57-2.42,5.87-4.51,6.68h0l-54,23.21-8.28-27.61,15.16-4.07,5.59-2.55,18.77-8.36,2.59-1.28Z" style="fill:#455a64"></path><path d="M87.14,199.25c4.57,4,7.15,12.78,5.76,19.58s-6.22,9-10.79,5S75,211.08,76.36,204.28,82.58,195.23,87.14,199.25Z" style="fill:#37474f"></path><path d="M121.45,182.07s11.1,6,9.47,25.2l-4.45,1.91s1.74-18.5-10.46-24.62Z" style="fill:#D38F1D"></path><path d="M101.11,191.2s11.12,5.61,9.5,24.79l-4.47,1.92s1.57-18-10.62-24.16Z" style="fill:#D38F1D"></path><g style="opacity:0.15"><path d="M129.9,194.42a36,36,0,0,1,1,12.85l-4.45,1.91a37.83,37.83,0,0,0-1.26-12.46Z"></path><path d="M109.86,204.23a36.59,36.59,0,0,1,.75,11.76l-4.47,1.92A37,37,0,0,0,105,206.6Z"></path></g><path d="M79.92,206.54c1.83-1.44,3.7.06,4.55,1.64a9.2,9.2,0,0,1,.76,4.61,3.91,3.91,0,0,1-.41,2c-.33.54-.88.84-1.28.36-.16-.19,0-.84.32-.8s.19.15.26,0a1.52,1.52,0,0,0,.07-.64A9.5,9.5,0,0,0,84,211.9a8.17,8.17,0,0,0-.71-2.67,4.4,4.4,0,0,0-1.56-1.77c-.56-.32-1.43-.38-1.66.51-.36,1.43.34,3.24.71,4.51a14.78,14.78,0,0,0,2.41,5.11c.64.8,2.42,2.51,3.6,1.63S88,216,88,214.82a16.53,16.53,0,0,0-.76-5.33,15,15,0,0,0-2.53-5.29,3.56,3.56,0,0,0-1.82-1.15c-.56-.16-1.89-.49-2.14.43-.06.22-.46.68-.64.39-.64-1,.36-2.08,1.36-2.45a4.58,4.58,0,0,1,4.42.73c1.76,1.35,2.7,4,3.43,6.23a18,18,0,0,1,.86,7.53c-.21,2-.87,4.64-3,5.37s-4.56-.78-5.77-2.54a17.43,17.43,0,0,1-2.56-7.11C78.6,210.05,78.43,207.72,79.92,206.54Z" style="fill:#263238"></path></g><g id="freepik--bottom--inject-8"><path d="M155.75,413.77c.08-4.9,1.42-42.82,1.42-42.82l-20.59,11.19c2.2,22,4.34,32.36,4.5,36.15h0a3.78,3.78,0,0,1,.11.78c-.13,4.32,5.13,6.84,9.19,9.87a78.27,78.27,0,0,0,11,7.11c3,1.5,9.78.77,10.6-1-4.94-3.71-10-7.06-13.47-11.55C156.69,421.14,155.68,418.33,155.75,413.77Z" style="fill:#c8856a"></path><path d="M179.81,441.09c.26,0,.56,2.64-.89,3.71-1.67,1.22-6.52,3.16-12.8,2.2s-9.65-2.88-12.11-4.9-5.91-4.88-8.74-5.55c-2.64-.63-5.48-1.83-6.3-2.61s-.6-4.11-.6-4.11Z" style="fill:#263238"></path><path d="M141,417.12s-.44-.06-.63.71-.52,3.58-1,5.07a24.76,24.76,0,0,0-.9,8.08c.29,1.72,4.58,3.06,7.31,4.12a35.72,35.72,0,0,1,8.78,5.49,27.59,27.59,0,0,0,13.16,5c6.28.3,10.4-1.11,11.73-3.13,1.64-2.5,1.13-5.09-6-8.41a73.86,73.86,0,0,1-7.65-4.71c-4.22-3.21-5.32-4.62-7.55-8.88a9.34,9.34,0,0,0-1-1.9,2.27,2.27,0,0,0-2.35-.68,50.23,50.23,0,0,0-6.18,1.12c-1,.39-2.38.83-2.39,2a3.37,3.37,0,0,0,.23,1.16c.08.23.14.54-.09.67s-.49,0-.67-.19A17.91,17.91,0,0,1,144,420.4a6.8,6.8,0,0,0-1.11-1.1,12.5,12.5,0,0,1-1.21-.78A2.18,2.18,0,0,1,141,417.12Z" style="fill:#37474f"></path><path d="M174.6,434.6c-9.12.25-12.82,6.36-13.31,9.52a23.16,23.16,0,0,0,6.41,1.47c6.28.3,10.66-1.1,12-3.12C181.23,440.11,181,437.06,174.6,434.6Z" style="fill:#fafafa"></path><path d="M160.3,435.27a.42.42,0,0,1-.28-.1.38.38,0,0,1,0-.57c1.31-1.38,5.69-4.19,9-3.75a.41.41,0,0,1,.38.46.44.44,0,0,1-.5.35c-3.08-.41-7.15,2.39-8.19,3.48A.45.45,0,0,1,160.3,435.27Z" style="fill:#f0f0f0"></path><path d="M156.45,433.05a.56.56,0,0,1-.28-.1.39.39,0,0,1,0-.58c1.32-1.37,5.7-4.19,9-3.74a.42.42,0,0,1,.38.46.44.44,0,0,1-.51.34c-3.07-.41-7.15,2.39-8.19,3.48A.46.46,0,0,1,156.45,433.05Z" style="fill:#f0f0f0"></path><path d="M152.9,430.54a.46.46,0,0,1-.27-.11.38.38,0,0,1,0-.57c1.32-1.37,6.69-4.76,10-4.31a.4.4,0,0,1,.38.46.43.43,0,0,1-.5.34c-3.07-.41-8.13,3-9.17,4A.5.5,0,0,1,152.9,430.54Z" style="fill:#f0f0f0"></path><path d="M149.43,428a.52.52,0,0,1-.27-.1.39.39,0,0,1-.06-.57c1.81-1.95,7.43-4.78,10.72-4.33a.41.41,0,0,1,.38.46.43.43,0,0,1-.5.34c-3-.4-8.31,2.33-9.92,4.06A.5.5,0,0,1,149.43,428Z" style="fill:#f0f0f0"></path><path d="M112.55,392.5l-19.92-2.95c-1,12.15-.54,22.86-1.9,33.71-.26,2-2.53,15.8-2.34,20.1.28,6.46,8.75,7.3,9.77,3.6s5.47-21,5.75-22.63c1.86-6.51,3.75-13.83,7.62-27.67C111.7,396.05,112.37,393.08,112.55,392.5Z" style="fill:#c8856a"></path><path d="M101.5,449.71c-.14,4-1.37,7.29-3.21,8.87a7.53,7.53,0,0,1-7.2,1.63c-2.74-.76-5.93-2.7-6.85-5.89-1.1-3.86-.55-6,.23-9.45Z" style="fill:#263238"></path><path d="M90.89,421.93c-1.15,0-1.71,5-2.59,10-1,5.34-2.81,7.49-3.64,11.87-.94,5-.59,7.83,1.2,11s8.48,6.42,12,2.21c2.91-3.43,4.08-7.18,4.06-12.21A103.53,103.53,0,0,1,102.9,432c.4-3.76,2-7.25,1-7.71-.66,1.87-1.36,4.7-1.74,4a8.43,8.43,0,0,1,0-1.42,1.56,1.56,0,0,0-.25-1.23,2.31,2.31,0,0,0-1.24-.58c-1.11-.25-4.53-1.2-5.67-1.35-.56-.07-1.13-.12-1.7-.14a4.7,4.7,0,0,0-1.45.12,1,1,0,0,0-.64.49,1.58,1.58,0,0,0-.09.57,3.67,3.67,0,0,1-.19,1c0,.14-.16.32-.33.28s-.17-.19-.17-.32c0-.6.13-1,.19-1.75,0-.32.11-.77.13-1.09S90.85,422.25,90.89,421.93Z" style="fill:#37474f"></path><path d="M84.1,446.7A13.21,13.21,0,0,0,85.43,455c1.79,3.13,8.59,6.07,12.59,2.25a13.17,13.17,0,0,0,3.48-7.53C99.64,446.26,87.41,444,84.1,446.7Z" style="fill:#fafafa"></path><path d="M99,444.58a.33.33,0,0,1-.14,0s-5.65-3-10.83-2.12a.43.43,0,0,1-.49-.32.39.39,0,0,1,.34-.45c5.47-.9,11.18,2.11,11.38,2.21a.37.37,0,0,1,.17.52A.41.41,0,0,1,99,444.58Z" style="fill:#f0f0f0"></path><path d="M88.51,438.68a.44.44,0,0,1-.35-.28.39.39,0,0,1,.29-.48c5.18-1.35,11.16,2,11.37,2.12a.37.37,0,0,1,.15.53.44.44,0,0,1-.57.13c-.05,0-5.89-3.3-10.71-2A.55.55,0,0,1,88.51,438.68Z" style="fill:#f0f0f0"></path><path d="M89,435.15a.41.41,0,0,1-.34-.27.37.37,0,0,1,.28-.48c5.7-1.59,11.38,2,11.58,2.09a.37.37,0,0,1,.11.54.43.43,0,0,1-.58.1c-.05,0-5.56-3.47-10.86-2A.61.61,0,0,1,89,435.15Z" style="fill:#f0f0f0"></path><path d="M89.49,431.19a.42.42,0,0,1-.34-.26.38.38,0,0,1,.27-.49c5.34-1.57,11.44,2.08,11.65,2.21a.36.36,0,0,1,.13.53.44.44,0,0,1-.58.12c-.05,0-6-3.58-10.94-2.12A.61.61,0,0,1,89.49,431.19Z" style="fill:#ebebeb"></path><path d="M112.07,260.86a8.85,8.85,0,0,1-1.84,4.22c-5.4,6.68-8,13.21-9,25.72-2.42,30.94-3.09,63.08-3.09,63.08-.35,2.73-3,7.46-4.69,21.57-1.52,12.35-2,29.35-2,29.35s14.47,2.59,18.73-1.34c2.41-9.17,9.93-32.41,14-45.75,3.71-12.1,6.63-30,6.63-30l4.39,25.21a70,70,0,0,0-.52,16.15c.64,8.34,3.59,30,3.59,30,2.64,2.89,15.12,2.87,18.39-1.16,0,0,3.64-36.4,4.17-46.43,1-18.66,3-54.44-2.39-81.89-.22-1.13-.78-5.67-.78-5.67C150.8,269,120.83,267.08,112.07,260.86Z" style="fill:#263238"></path><path d="M124.28,270.2a.37.37,0,0,0-.46.23c-.44,1.43-.78,2.71-1.11,3.95-1.2,4.49-2.07,7.73-5.77,11.08a12.59,12.59,0,0,1-9.06,3c2-9.2,5.53-16.46,11-22.34a.32.32,0,0,0,0-.48.4.4,0,0,0-.53,0c-5.58,6-9.23,13.51-11.19,23l0,0v0a85.39,85.39,0,0,0-1.49,11.47c-1.12,17.42-2.82,43.73-3.4,50.64a48.72,48.72,0,0,1-2.6,10.89c-1.09,3.47-2.34,7.4-3.53,12.8-2.58,11.68-2.42,31.07-2.42,31.26a.38.38,0,0,0,.37.35h0a.37.37,0,0,0,.38-.35c0-.19-.16-19.51,2.4-31.12,1.18-5.37,2.42-9.29,3.52-12.74a49.65,49.65,0,0,0,2.62-11c.58-6.91,2.28-33.23,3.4-50.65a84,84,0,0,1,1.43-11.11l.39,0a13.14,13.14,0,0,0,9.34-3.24c3.85-3.49,4.74-6.81,6-11.4.33-1.24.67-2.51,1.11-3.93A.34.34,0,0,0,124.28,270.2Z" style="fill:#455a64"></path><path d="M91.66,401c2.63,2.62,14.33,4.49,18.62,2.49l-2.07,6.7s-3.09,1.33-9.16.53c-7-.93-7.68-3.15-7.68-3.15Z" style="fill:#455a64"></path><path d="M138.38,399c3.57,1.33,14.33,1,18.39-1.16l-.37,5.58s-2.84,2-8.94,2.31-8.51-1.36-8.51-1.36Z" style="fill:#455a64"></path><path d="M130.92,327.69l5.36-30.42a20.35,20.35,0,0,0,16.29-6.74s-.08,7.66-13.23,10.6l-6,28,2,23.78Z"></path></g><g id="freepik--top--inject-8"><path d="M145.47,214.73c9.73-.08,12.42,1.88,16.55,7.22s15.1,34.94,15.1,34.94H160.53Z" style="fill:#D38F1D"></path><path d="M145.47,214.73c9.73-.08,12.42,1.88,16.55,7.22s15.1,34.94,15.1,34.94H160.53Z" style="fill:#fff;opacity:0.6000000000000001"></path><path d="M171.51,249.08c1.39,1.95,3,3.71,4.35,5.67a18.75,18.75,0,0,1,3.26,12.51,6,6,0,0,1-.76,2.61c0,.47-.9,1.2-1.27,1.49a3.06,3.06,0,0,1-2.28.54c-3-.3-5.85-2.13-8.12-4.32a21.36,21.36,0,0,1-2.23-2.51,37.8,37.8,0,0,1-4-7.46c-1-2.21-1.6-4.59-2.37-6.89q-1-2.91-1.81-5.87c-.55-1.94-.05-2.32,1.49-3.51a18.79,18.79,0,0,1,2.14-1.7,10.09,10.09,0,0,1,2.6-1c.85-.2,2-2.25,2.6-1.14.26.48.06,1.76.14,2.3C165.37,240.71,170.31,247.41,171.51,249.08Z" style="fill:#c8856a"></path><path d="M165.27,239.47c-.05.83.3,1.28-.46,2.07s-3.14,1.44-4.08,2.31c1.51-.31,3.21-.91,4.12-.95S166.45,241.52,165.27,239.47Z" style="fill:#af6152"></path><path d="M161.81,228.23a3.79,3.79,0,0,0,.18.5c.3.69,1.19,1,1.81,1.37a2.72,2.72,0,0,1,1.53,1.78c.14.93-.56,1.84-.37,2.76s1.27,1.57,1.29,2.53-.79,1.48-1,2.3c-.1.45,0,.93-.08,1.38-.13,1-1.41,1.2-2.19,1.52a3.52,3.52,0,0,1-1.22.33,1.17,1.17,0,0,1-1.07-.56c-.47-.9.8-2,.3-2.92-.21-.37-.66-.53-1-.75a2.57,2.57,0,0,1-1.14-2.66,1.86,1.86,0,0,0,.09-.74,1.71,1.71,0,0,0-.32-.53c-.88-1.21-.69-2.7-.43-4.06a8.66,8.66,0,0,0-.56-4.9c-.13-.29,1.79-.28,2-.22a3.25,3.25,0,0,1,1.64,1.33A4.92,4.92,0,0,1,161.81,228.23Z" style="fill:#c8856a"></path><path d="M103.54,278.17c3.7-10.81,6.08-17.06,6.18-20.49,0,0-3.12-17.25-3.56-21.32-1.16-10.58.73-15.54,2.86-16.67,1.23-.65,7.87-2.36,12.79-6.24,6-4.71,9.2.32,16,.43a53.44,53.44,0,0,1,7.07,1.2,63.08,63.08,0,0,1,9.19,8.38c5.42,6.29,7.12,10.52,6.25,17a15.48,15.48,0,0,1-3.59,7.62c-.41,3.13-1.09,12-1.09,12,.08,3.48-.17,3.41,1.59,11.8C151.71,288.42,114.74,287.38,103.54,278.17Z" style="fill:#fafafa"></path><path d="M121.34,213.22a22.92,22.92,0,0,0,1.34,7c1.47,4.71,3.89,8.12,4.17,18.22s-3.38,57.32-2.3,68.75c-7.51,0-19.48-5-25.07-11a127.6,127.6,0,0,1,4.06-22.83c2.68-10.21,5.47-11,4.9-16.49s-5.75-27.22-1.32-38.32a61.51,61.51,0,0,0,7.76-1.5C122,215.3,121.34,213.22,121.34,213.22Z" style="fill:#D38F1D"></path><path d="M121.34,213.22a22.92,22.92,0,0,0,1.34,7c1.47,4.71,3.89,8.12,4.17,18.22s-3.38,57.32-2.3,68.75c-7.51,0-19.48-5-25.07-11a127.6,127.6,0,0,1,4.06-22.83c2.68-10.21,5.47-11,4.9-16.49s-5.75-27.22-1.32-38.32a61.51,61.51,0,0,0,7.76-1.5C122,215.3,121.34,213.22,121.34,213.22Z" style="fill:#fff;opacity:0.4"></path><path d="M138.91,212.5l.27,1c0,2.89,6,7.49,10.14,14.32s4.84,13.49,4.55,22.21,2,41.45,2.88,45.72a11.87,11.87,0,0,0,5-7.12c-.7-5.18-1.94-14.17-2.69-17.32s-.7-8.29-.7-14.75c0-5.16.2-7.65.2-7.65s5.6-5.54,3.19-15.06-16.59-19.06-16.59-19.06a23.47,23.47,0,0,0-2.55-.63A14.07,14.07,0,0,1,138.91,212.5Z" style="fill:#D38F1D"></path><path d="M138.91,212.5l.27,1c0,2.89,6,7.49,10.14,14.32s4.84,13.49,4.55,22.21,2,41.45,2.88,45.72a11.87,11.87,0,0,0,5-7.12c-.7-5.18-1.94-14.17-2.69-17.32s-.7-8.29-.7-14.75c0-5.16.2-7.65.2-7.65s5.6-5.54,3.19-15.06-16.59-19.06-16.59-19.06a23.47,23.47,0,0,0-2.55-.63A14.07,14.07,0,0,1,138.91,212.5Z" style="fill:#fff;opacity:0.4"></path><path d="M154,257.84c.26-5,2.89-17.67,3.23-20.19s-3.23-4.82-3.23-4.82,2.15.55,2.87,0-3.64-6.85-7.35-11-11.71-11.28-11.71-11.28v3.34a61.81,61.81,0,0,1,6.36,7.94C147.42,227.17,153.47,233,154,257.84Z" style="fill:#D38F1D"></path><g id="freepik--head--inject-8"><path d="M131.06,169.61a12.52,12.52,0,0,1-1.66,1.14c-1.35.79-2.81,1.39-4.18,2.15a20.6,20.6,0,0,0-6.69,5.94c-.56.76-1.06,1.9-2,2.32a6,6,0,0,1-2.74.73,3.74,3.74,0,0,1-2.41-1.15,5.43,5.43,0,0,1-1.3-2.36,4.12,4.12,0,0,0-.48-1.28c-.51-.72-1.5-.86-2.33-1.18a5,5,0,0,1-3.16-4,5.11,5.11,0,0,1,1.32-4c.19-.21.65-.44.78-.68s0-.42-.27-.72a5.27,5.27,0,0,1-1.24-1.88,2.22,2.22,0,0,1,.72-2.58,2.08,2.08,0,0,0,2.08,1.81c1.61-.09,1.41-1.54,1.35-2.71a5.5,5.5,0,0,1,5.39-5.77,7.39,7.39,0,0,1,2.24.36,3.92,3.92,0,0,0,1.16.27,3.58,3.58,0,0,0,2-.93,6.5,6.5,0,0,1,3-1.45,4.44,4.44,0,0,1,1.62.14,5.7,5.7,0,0,1,4.07,4.5,3.33,3.33,0,0,1,3.88-.44,1.3,1.3,0,0,0-1.35,1.23,2.63,2.63,0,0,0,.78,2.15,14.24,14.24,0,0,1,1.43,1.87,4.77,4.77,0,0,1-.27,4.5A7.6,7.6,0,0,1,131.06,169.61Z" style="fill:#263238"></path><path d="M124.35,165.17a10.85,10.85,0,0,0-5.87,3.45,3.06,3.06,0,0,0-.84,1.62,2.26,2.26,0,0,0,1.52,2.18,4.47,4.47,0,0,0,2.8,0,9.34,9.34,0,0,0,5-3.39c.56-.76,1.17-2.12.64-3.05S125.36,165,124.35,165.17Z" style="fill:#D38F1D"></path><path d="M151.21,186c2.35-4.5.79-10.8-1.44-13.86-3.21-4.43-8.54-6.61-16.78-6.66-6.27,0-14,2.23-15.55,8.56-6,2.53-4.7,11.8-3.58,15.35,3.24,10.32,8,11,8,15.83Z" style="fill:#263238"></path><path d="M115.32,190.81c2.24-2.45,5.11-1.65,6.38.65s3.58,1.62,2.71-1.83c1.56-.66,4.06-1.11,3.44-7.5-.26-2.61.37-4.45,1.94-5.74,2.62-2.16,7.69-1.57,10.37,1.34a5.09,5.09,0,0,1,8.06-1.65c1.36,1.15,3.56,4.32,3,9.91-.25,1.69.21,3.81.09,7-.45,12-3.88,14.37-7.17,15.66-2,.77-3,.87-6.13.71l-.17,4.54a74,74,0,0,1,1.53,17.31c-17.06-12.27-17.54-17.72-17.55-17.74l.08-13.06a3.84,3.84,0,0,1-4.09-.18C114.66,198.22,113.08,193.26,115.32,190.81Z" style="fill:#c8856a"></path><path d="M135.51,197.08l5.17,1.64a2.61,2.61,0,0,1-3.31,1.82A2.86,2.86,0,0,1,135.51,197.08Z" style="fill:#af6152"></path><path d="M138.56,200.62a2.43,2.43,0,0,0-2.5-2.33,2.26,2.26,0,0,0-.58.09,2.83,2.83,0,0,0,1.89,2.16A2.68,2.68,0,0,0,138.56,200.62Z" style="fill:#ffa8a7"></path><polygon points="139.03 185.33 140.71 195.93 145.82 192.95 139.03 185.33" style="fill:#af6152"></polygon><path d="M138,209.34c-3.84-.36-12-2.78-13.78-8,0,0,.15,3.66,4.77,6.66,3.63,2.37,8.95,3.05,8.95,3.05Z" style="fill:#af6152"></path><path d="M136,188.72a1.53,1.53,0,1,1-1.32-1.72A1.53,1.53,0,0,1,136,188.72Z" style="fill:#263238"></path><path d="M147.83,188.13a1.53,1.53,0,1,1-1.07-1.88A1.53,1.53,0,0,1,147.83,188.13Z" style="fill:#263238"></path><path d="M147.52,181.94a2.2,2.2,0,0,0-2.7,1.52l4.22,1.19A2.2,2.2,0,0,0,147.52,181.94Z" style="fill:#263238"></path><path d="M133,182.59a2.2,2.2,0,0,0-1.27,2.83l4.1-1.57A2.18,2.18,0,0,0,133,182.59Z" style="fill:#263238"></path></g><path d="M121.82,209a14.49,14.49,0,0,1-4.62,7.39s2,9.17,1.62,13.68-1.25,8.87,0,8.84a33.19,33.19,0,0,0,5-1.18s-3,4.39-2.71,5.77S126,260.34,126,260.34s2-17.9,1.65-23.15-2.83-13.82-4.69-19.84A31.73,31.73,0,0,1,121.82,209Z" style="fill:#D38F1D"></path><path d="M114,217.14s7.69,6.58,8.9,19.25c3.07,32-20.37,38.58-20.37,38.58a63,63,0,0,1,1.93-8.06s13.8-12.64,12.27-29c-1.1-11.67-6.68-18.63-9.65-19.39C107.12,218.52,110.06,217.74,114,217.14Z" style="fill:#37474f"></path><path d="M98.5,275.45c3.06-1.07,5.08-2.36,8.2-5.22,5.79-5.3,6.1-6.09,10.91-10.76,1.63-1.59,3.08-3.17,3.77-3.88a19.45,19.45,0,0,0,3.63-4A12.07,12.07,0,0,0,127,247c.15-1.73.7-3.51.29-5.27-.12-.5-.31-1-.41-1.5a12.85,12.85,0,0,1-.1-2.15,10.09,10.09,0,0,0-.63-3.69,6.52,6.52,0,0,0-1.81-2.56,2.3,2.3,0,0,0-2.27-.68c.23.93.39,1.71.59,2.79a7.71,7.71,0,0,1-1.75,4.19c-1.77,2.56-3.33,3.92-3.58,3.43s.38-2.08,0-4.58-1.1-3.38-1.87-3.54c-1.24-.25-1.17,1.08-1.59,3.11-.5,2.42-1.47,3.78-1.44,7.33,0,3.1.58,3.8-1.09,5.26-1,.84-4.24,2.88-4.24,2.88s.79-3.42,2.08-9.25c2.5-11.31,2.48-22.42-2-23.89-5.39,1.59-10.64,4.64-13,13.87-2.53,9.82-2.54,11.29-4.67,30.67C87.94,277.56,93.84,277.08,98.5,275.45Z" style="fill:#c8856a"></path><path d="M107.08,252.06c-3.82,3.12-12.28,7.76-13.18,12.51,0,0,0-3.73,5-8.44a69.92,69.92,0,0,1,8.91-7.23Z" style="fill:#af6152"></path><path d="M107.12,218.52c-3.76.88-8.51,3.41-10.72,7.54s-2.8,7.09-4.21,13.14-3.6,27.1-3,28c4-6,8.91-11.39,17.85-15.11,0,0,2.41-8.73,3.37-14.67S113.29,221.38,107.12,218.52Z" style="fill:#D38F1D"></path><path d="M107.12,218.52c-3.76.88-8.51,3.41-10.72,7.54s-2.8,7.09-4.21,13.14-3.6,27.1-3,28c4-6,8.91-11.39,17.85-15.11,0,0,2.41-8.73,3.37-14.67S113.29,221.38,107.12,218.52Z" style="fill:#fff;opacity:0.6000000000000001"></path><path d="M141.19,213.82s14.89,9.94,19,16.24c-2-6.31-13.07-15.33-13.07-15.33Z" style="fill:#37474f"></path></g></g></g></svg>
